<svg id="Layer_1" data-name="Layer 1" xmlns="http://www.w3.org/2000/svg" viewBox="0 0 1296 1728"><defs><style>.cls-1{fill:#ecf20c;}.cls-2,.cls-33{opacity:0.2;}.cls-3{fill:#1c1c1c;}.cls-18,.cls-4{fill:#e2413e;}.cls-4{opacity:0.3;}.cls-5{fill:#353535;}.cls-6{fill:#8b372f;}.cls-33,.cls-34,.cls-38,.cls-7{fill:#fff;}.cls-8{fill:#d1d1d1;}.cls-9{fill:#ecc19c;}.cls-10{fill:#cf9e76;}.cls-11{fill:#722d26;}.cls-12{fill:#a03f35;}.cls-13{fill:#b9493e;}.cls-14{fill:#424242;}.cls-15{fill:#dfb28b;}.cls-16{fill:#292929;}.cls-17{fill:#d35345;}.cls-19{fill:#f56462;}.cls-20{fill:#888;}.cls-21{fill:#5d5d5d;}.cls-22{fill:#f0d0b4;}.cls-23{fill:#c2c2c2;}.cls-24{fill:#a64429;}.cls-25{fill:#fc0d63;}.cls-26{fill:#2c3356;}.cls-27{fill:#252a4c;}.cls-28{fill:#590028;}.cls-29{fill:#ff008c;}.cls-30{fill:#083c42;}.cls-31{fill:#0c2021;}.cls-32{fill:#567b81;}.cls-34{opacity:0.1;}.cls-35{fill:#dcfcff;}.cls-36{fill:#e12a86;}.cls-37{font-size:20.4px;font-family:MyriadPro-Regular, Myriad Pro;}.cls-38{opacity:0.4;}.cls-39{font-size:89.66px;font-family:TimesNewRomanPS-BoldMT, Times New Roman;font-weight:700;}.cls-39,.cls-40{fill:#181935;}.cls-40{font-size:40px;font-family:TimesNewRomanSF, Times New Roman SF;}.cls-41{letter-spacing:-0.14em;}.cls-42{letter-spacing:-0.01em;}.cls-43{letter-spacing:-0.01em;}.cls-44{letter-spacing:-0.02em;}.cls-45{letter-spacing:-0.03em;}.cls-46{letter-spacing:-0.04em;}.cls-47{letter-spacing:-0.09em;}.cls-48{letter-spacing:0.09em;}.cls-49{letter-spacing:-0.04em;}.cls-50{letter-spacing:-0.01em;}.cls-51{letter-spacing:0em;}.cls-52{letter-spacing:-0.03em;}.cls-53{letter-spacing:-0.06em;}</style></defs><title>checkout post</title><path class="cls-1" d="M1044.08,584.74C1008,399.9,832.22,277.85,647.72,306.79c177.71-18.42,343.24,101.6,378.1,280.33a350.27,350.27,0,0,1,6.34,77.71,385.9,385.9,0,0,1-30.06,98.11,347.38,347.38,0,0,0,2.35-142c-36-189.52-220.3-314.29-409.65-277.35l-4,.8a296.22,296.22,0,0,0-85,31.78H585a17.17,17.17,0,0,1,17.17,17.16h0A17.17,17.17,0,0,1,585,410.52H457a290,290,0,0,0-79.09,110.36A347.27,347.27,0,0,0,359,718.37c25.75,132,122.75,232,243.29,267.83a388,388,0,0,1-338-337.61A387,387,0,0,0,402,926.56c119.76,100.76,282.6,116.68,415.47,54.08C976.9,924.06,1077.39,755.53,1044.08,584.74ZM961.44,864.67c1-1.68,2-3.38,2.95-5.07a389.63,389.63,0,0,0,29.35-46.3A352.38,352.38,0,0,1,961.44,864.67Z"/><g class="cls-2"><path class="cls-3" d="M941.52,409.09c-.79.17-1.57.37-2.36.58s-1.31.35-1.95.55c-.79.25-1.57.54-2.35.83l-.7.27a346.86,346.86,0,0,1,54.71,73.9l.11-.14c.71-.9,1.38-1.81,2-2.74l.55-.8c.73-1.14,1.41-2.3,2-3.49.21-.38.39-.77.59-1.16.42-.85.82-1.71,1.18-2.58.2-.47.41-.94.59-1.41.41-1.07.79-2.14,1.12-3.23.19-.62.35-1.26.52-1.89.07-.28.13-.57.21-.86A348.35,348.35,0,0,0,951.57,408h-1.25c-.78,0-1.57.06-2.35.12s-1.38.11-2.07.19-1.57.22-2.36.35S942.19,408.94,941.52,409.09Z"/><path class="cls-3" d="M991,489.17c.68,1.27,1.37,2.55,2,3.83a43.38,43.38,0,0,0,5.39-10.48h0A33.65,33.65,0,0,1,991,489.17Z"/><path class="cls-3" d="M961.44,864.67c1-1.68,2-3.38,2.95-5.07q4.35-5.91,8.43-11.92l3.43-17.54a66,66,0,0,0-29.39-68.38l-40.68-25.87-2.53-48.37c.39-.47.77-.95,1.15-1.42l1.81-2.34,1.33-1.8c.55-.75,1.1-1.51,1.63-2.27s.9-1.31,1.34-2,1-1.47,1.46-2.21.89-1.43,1.34-2.15.86-1.4,1.27-2.11,1-1.7,1.43-2.55c.33-.6.67-1.19,1-1.79q1.13-2.11,2.15-4.28c.25-.53.47-1.06.72-1.59.43-1,.87-1.92,1.27-2.88.26-.61.5-1.23.74-1.84.35-.89.7-1.78,1-2.67.23-.64.45-1.28.67-1.91.27-.8.54-1.6.79-2.4v0h0l.89-.45a74.79,74.79,0,0,1,6.78,6.12c3.65,3.78,7.15,13.69,7.15,13.69s.7-7.79-2.56-14.36a20.87,20.87,0,0,0-7-7.91h0a30.35,30.35,0,0,1,9.35,3.12c8.94,4.68,16.48,19.82,16.48,19.82s0-12.91-8.08-21.33a48.75,48.75,0,0,0-9.31-7.18A128,128,0,0,0,956,625.77c1-1,1.92-2,2.87-3.1a107,107,0,0,0,15.74-22.83,95.84,95.84,0,0,0,4.1-9.25,93.88,93.88,0,0,0,5.34-21c.25-1.9.46-3.82.6-5.79s.23-4,.26-6c0-1.09,0-2.23-.06-3.35a348.19,348.19,0,0,0-106-141.16c-31-5.91-71.93-2.75-113.26,23.66C737.58,454.8,732,473.35,733,486.89h0c0,.68.11,1.34.19,2l0,.28c.08.61.17,1.2.27,1.79,0,.12,0,.25.07.37q.15.84.33,1.65l.09.4c.12.52.26,1,.39,1.53,0,.13.07.26.11.4.14.49.28,1,.43,1.42,0,.13.08.26.13.38.15.46.3.89.46,1.32l.13.36c.16.41.32.82.48,1.21,0,.11.09.22.14.33.16.38.32.75.48,1.1l.14.3c.16.34.31.67.47,1l.14.26c.15.31.3.6.44.87l.14.24.41.74.12.2c.12.22.25.43.36.61a1.4,1.4,0,0,1,.1.16c.11.17.21.34.31.48l.08.13.22.33.13.18.07.11.07.09s-32,22.53-12.26,129.2c9.5,51.25,29.62,99.58,81.75,99.58,2.19,0,4.37-.1,6.55-.24l.8,12-7.6,5.49h0l-36.8,26.58-1.09,3.86-57.72,118-.78-.58a3.87,3.87,0,0,0-5.35.67l-8.34,10.48L666.16,806.73a24.23,24.23,0,0,0-1.7-4l9-16.73a7.16,7.16,0,0,0-2.92-9.69h0a7.16,7.16,0,0,0-9.69,2.93l-7,13.12a24.08,24.08,0,0,0-8.39-2.38c.69-4,2.59-16.63,1.11-25-1.79-10-11.58-17.28-15.59-10.86s3.34,9.3,4,18.43c.4,5.43-1.51,14.05-3.13,20.17a24.06,24.06,0,0,0-11.55,28.33l45.11,144.58a36.42,36.42,0,0,0,13.52,18.77,24,24,0,0,0,2.76,5.12H646.56L578.72,798.08a18.25,18.25,0,0,0-17.19-12.15H379.46c40.82,98.13,123.89,170.83,222.87,200.27A388.51,388.51,0,0,1,308.16,785.93H296.63A386.25,386.25,0,0,0,402,926.56c119.76,100.76,282.6,116.68,415.47,54.08A348.37,348.37,0,0,0,967.2,876.49l5.37-27.5C969,854.3,965.31,859.56,961.44,864.67ZM702.67,923.75v0l0,0Zm38.7,30.32.14-.27.4.3Z"/><path class="cls-3" d="M653.92,737.54a5,5,0,0,0,4.86-5.15l-.94-32.69a5,5,0,1,0-10,.28l.93,32.7A5,5,0,0,0,653.92,737.54Z"/><path class="cls-3" d="M681.47,751.21a5,5,0,0,0,7,1.16l26.6-19a5,5,0,1,0-5.83-8.15l-26.6,19A5,5,0,0,0,681.47,751.21Z"/><path class="cls-3" d="M671.43,737.47a5,5,0,0,0,6.72-2.23L692.84,706a5,5,0,0,0-9-4.5L669.2,730.74A5,5,0,0,0,671.43,737.47Z"/></g><path class="cls-4" d="M1048.83,617.38q-10-9.2-20.79-17.47a349.59,349.59,0,0,1,4.12,64.92,385.9,385.9,0,0,1-30.06,98.11A349.83,349.83,0,0,0,993,576.8a296.82,296.82,0,0,0-146.14-38.22c-121.79,0-226.51,73-272.82,177.63a83.85,83.85,0,1,0-24.14,148.13,296.48,296.48,0,0,0,35.7,116.38c5.52,1.95,11.07,3.8,16.7,5.48-5-.6-9.89-1.32-14.81-2.11a297.46,297.46,0,0,0,20.33,31.08,389.67,389.67,0,0,0,209.63-34.53C966.73,927.67,1064.32,776.58,1048.83,617.38ZM961.44,864.67c1-1.68,2-3.38,2.95-5.07a389.63,389.63,0,0,0,29.35-46.3A352.38,352.38,0,0,1,961.44,864.67Z"/><polygon class="cls-5" points="682.08 914.37 755.6 764.06 712.4 742.93 642.89 885.04 682.08 914.37"/><path class="cls-6" d="M868.79,606.86a20.91,20.91,0,0,1,8.46,8.79c3.26,6.57,2.56,14.36,2.56,14.36s-3.5-9.91-7.15-13.69a74.87,74.87,0,0,0-7.87-7Z"/><path class="cls-6" d="M871.35,598.17S882,603.09,888,609.35c8.08,8.41,8.08,21.33,8.08,21.33s-7.54-15.14-16.48-19.82c-8.68-4.54-16-3.34-16-3.34Z"/><polygon class="cls-7" points="836.21 1019.88 846.39 697.18 757.92 723.56 714.03 789.29 686.23 1019.88 836.21 1019.88"/><path class="cls-8" d="M704.06,1019.88H812.68l6.88-123.21-25.08-28.61s-8.36-2.78-16.72,3.91-20.62,7.24-26.75-1.12-15.61-15.05-24-13.93-6.69,86.94-6.69,86.94Z"/><path class="cls-9" d="M757.92,723.56l-3.5-52.76L839.7,569l6.7,128.23-4.13,24.51a52.69,52.69,0,0,1-55.41,43.83l-15.62-1a17.66,17.66,0,0,1-16.33-20.16Z"/><path class="cls-10" d="M843.7,649c-6.88,14.36-27.65,42.85-48.94,57.12-15.25,10.21-28.78,10.14-37.44,8.29l-2.9-43.65L789,629.51l52.45-27Z"/><path class="cls-6" d="M925.37,383.16a47.32,47.32,0,0,1-5.6,72.26,52.6,52.6,0,0,0,7.39-2.69,33.24,33.24,0,0,0,11.5-8.92s-5.74,18.41-23.19,24.63c-12,4.26-8.5-2.79-5.13-7.64a47.65,47.65,0,1,1,15-77.64Z"/><path class="cls-7" d="M653,862.28l45.74,34.21a3.8,3.8,0,0,1,.85,5.26L689.45,916a3.88,3.88,0,0,1-5.53.79L638,881.24a3.8,3.8,0,0,1-.67-5.38L647.61,863A3.87,3.87,0,0,1,653,862.28Z"/><path class="cls-9" d="M642.89,885,606.38,768a24,24,0,1,0-45.91,14.32l45.11,144.58a36.43,36.43,0,0,0,32.18,25.57c1,.07,1.89.11,2.83.11a36.41,36.41,0,0,0,32.83-20.53l8.66-17.7Z"/><path class="cls-11" d="M926.33,424.18A79.57,79.57,0,0,0,937,402a47.07,47.07,0,0,1-17.19,53.44,52.6,52.6,0,0,0,7.39-2.69,33.24,33.24,0,0,0,11.5-8.92s-5.74,18.41-23.19,24.63c-12,4.26-8.5-2.79-5.13-7.64a47.32,47.32,0,0,1-13.19,3.45,79.29,79.29,0,0,1,1-20.28S912.12,445.64,926.33,424.18Z"/><path class="cls-12" d="M858,383.33A47.67,47.67,0,0,1,921.8,380c.06,4-.63,10.86-3.74,14.32-11.52,12.82-38.64,12.26-38.64,12.26s8.17,4.46,14.86,4.46a127.07,127.07,0,0,0,13-.74s-12.26,9.29-33.44,7.06c-8.13-.86-19.9,0-29.71-1.06A47.46,47.46,0,0,1,858,383.33Z"/><path class="cls-13" d="M867.75,410.52S921.37,435.94,925,512.88c3.16,67.44-60,97.77-60,97.77L854.38,443.77Z"/><path class="cls-9" d="M749.6,697.18h0c60.37,0,116.55-56.22,119.15-106.83l-1-179.83-2.23-3.91L724.7,404.2l-44.59,64.2s-32,22.53-12.26,129.2C677.35,648.85,697.47,697.18,749.6,697.18Z"/><path class="cls-13" d="M885.79,376.53s8.17-1.47,14,1.72,2.36,11.17-5,16S874.32,397,872,389.65,881.43,376.87,885.79,376.53Z"/><circle class="cls-6" cx="774.48" cy="559.85" r="10.85"/><circle class="cls-6" cx="690.57" cy="559.85" r="10.85"/><path class="cls-7" d="M689.66,556.6a4.17,4.17,0,1,0,4.16-4.16A4.17,4.17,0,0,0,689.66,556.6Z"/><path class="cls-6" d="M755.75,507.1a26.22,26.22,0,0,1,9.29-9.83,21.38,21.38,0,0,1,6.4-2.64,22.39,22.39,0,0,1,6.91-.46,39.92,39.92,0,0,1,6.79,1,30.92,30.92,0,0,1,6.45,2.41,20.38,20.38,0,0,1,9.54,9.49,19,19,0,0,0-4.43-5,26.31,26.31,0,0,0-5.63-3.46,36.64,36.64,0,0,0-12.82-3,21.79,21.79,0,0,0-12.63,2.61,27.38,27.38,0,0,0-5.38,3.85A30,30,0,0,0,755.75,507.1Z"/><path class="cls-6" d="M708,507.1a26.59,26.59,0,0,0-8.72-8.68,20.08,20.08,0,0,0-11.64-2.84,31.62,31.62,0,0,0-11.92,2.61,15.92,15.92,0,0,0-4.91,3.54,11.78,11.78,0,0,0-3,5.37,11.17,11.17,0,0,1,2.36-5.86,15.51,15.51,0,0,1,5-4.12,28.62,28.62,0,0,1,12.4-3,20.6,20.6,0,0,1,6.44.67,20,20,0,0,1,5.88,2.69A23.36,23.36,0,0,1,708,507.1Z"/><path class="cls-6" d="M774.48,559.85a28.26,28.26,0,0,0,5.69-.24,18.13,18.13,0,0,0,5.27-1.61,14.67,14.67,0,0,0,4.43-3.2,17.84,17.84,0,0,0,1.83-2.13c.59-.75,1-1.59,1.63-2.38a20.28,20.28,0,0,1-1,2.76,12.94,12.94,0,0,1-1.57,2.52,12.68,12.68,0,0,1-2.1,2.17,14.22,14.22,0,0,1-2.57,1.61,15,15,0,0,1-11.61.5Z"/><path class="cls-7" d="M773.57,556.6a4.16,4.16,0,1,0,4.16-4.16A4.17,4.17,0,0,0,773.57,556.6Z"/><path class="cls-6" d="M690.57,559.85a15,15,0,0,1-11.61-.5,14.22,14.22,0,0,1-2.57-1.61,12.68,12.68,0,0,1-2.1-2.17,12.94,12.94,0,0,1-1.57-2.52,19,19,0,0,1-1-2.76c.59.79,1,1.63,1.62,2.38a17.84,17.84,0,0,0,1.83,2.13,14.67,14.67,0,0,0,4.43,3.2,18.13,18.13,0,0,0,5.27,1.61A28.26,28.26,0,0,0,690.57,559.85Z"/><path class="cls-14" d="M712.55,741l-26.82,95.17a62.65,62.65,0,0,0-1.65,26.27L688.84,894l11.67-6.47Z"/><path class="cls-15" d="M840.78,573.73c-1.49-47.56-23.78-86.2-23.78-86.2s21.27-10.82,51.2,3l.55,99.85c-2.3,44.71-46.41,93.77-98.29,104.6C810.84,669.51,842.25,620.9,840.78,573.73Z"/><path class="cls-13" d="M867.75,410.52S801.61,449,799.38,466.06s29,22.3,46.08,45.33a154.4,154.4,0,0,1,23.41,47l6.69-90Z"/><path class="cls-13" d="M825.1,429.38a158.53,158.53,0,0,0-31.66,29.25s-33.66-10.25-63.46-7.54-49.87,17.31-49.87,17.31-27.31-36.33,25.64-70.16c42.18-26.95,84-29.72,115.19-23.3a68.46,68.46,0,0,1,44.58,31.67S851.55,411.36,825.1,429.38Z"/><path class="cls-12" d="M857,485.68h0c1.48-.41,2.92-.89,4.32-1.43l.1,0a34.15,34.15,0,0,0,4.06-1.88c1.08-.59,2.09-1.18,3.06-1.78l1.09-.69c.55-.35,1.1-.71,1.62-1.07s.85-.59,1.26-.88l1.11-.83c.45-.34.91-.68,1.33-1,10.66-8.61,12.6-16.77,12.6-16.77s.75,10.78-3,20.44-7.06,13.37-7.06,13.37,17.84,8.18,28.24,0c6.93-5.44,8.74-17.8,9.07-27.75A141.75,141.75,0,0,1,925,512.88c3.16,67.44-60,97.77-60,97.77l-4.74-74.51a151.33,151.33,0,0,0-14.79-24.75c-8.9-12-21.62-19.15-31.47-25.67C814,485.72,838.15,490.93,857,485.68Z"/><path class="cls-14" d="M799.1,914l-11,105.84H892.14l-10.63-49.23,35-179.22a66,66,0,0,0-29.39-68.38l-40.69-25.87-33.52,84.68-2.53,24.29-14.25,50.58A62.55,62.55,0,0,0,794.44,883Z"/><path class="cls-5" d="M887.15,1019.88l-18.54-57.07V912.09l-26-9.47s-11.52.37-13.38-5.2-3.34-29.73-3.34-29.73l-17.47,52L790,1001.11l-2,18.77Z"/><path class="cls-3" d="M793.67,977.18c-.14-.24-.47-.85-1-1.76L799.1,914l-4.66-31a62.55,62.55,0,0,1,1.65-26.28L810,807.27l18.6-12.21,6.13,38.82L829,854.05c-4.48,16.21-9.87,37.13-9.43,42.62.74,9.29,2.23,39.47-3.72,53.18s-25.8,51.26-25.8,51.26Z"/><path class="cls-14" d="M714.92,1019.88l16.8-115.77-4-26.45a62.5,62.5,0,0,1,1.65-26.27l20.58-73,7.95-54.81-1-14.64L712.55,741l-34,219.24-9.81,59.65Z"/><path class="cls-5" d="M710,862.12a37,37,0,0,1-13,1.49c-7.8-.38-11.14-3.35-11.14-3.35s6.68,27.5,5.57,33.81-7.06,34.56-7.06,34.56L678,974l43.48,3.34,1.95-43.47Z"/><path class="cls-3" d="M712.55,824.22,735.43,787l6.39,20.27h0l-12.43,44.12a62.5,62.5,0,0,0-1.65,26.27l4,26.45-6.64,45.74s-10.67-42.4-15.87-66.55S712.55,824.22,712.55,824.22Z"/><polygon class="cls-16" points="859.48 706.05 836.28 790.04 810.02 807.27 812.87 781.86 846.39 697.18 859.48 706.05"/><polygon class="cls-16" points="749.35 714.4 732.99 779.26 741.82 807.27 749.97 778.37 757.92 723.56 756.95 708.92 749.35 714.4"/><path class="cls-9" d="M864.47,593.74l-1.62-49.52a26,26,0,1,1,1.33,49.84Z"/><path class="cls-12" d="M848.58,515.78h0a100.86,100.86,0,0,1,13.16,43.77l.71,11.16,10-60.13Z"/><path class="cls-17" d="M831.65,457.48s3.12-10.88,17.64-18.48,24-8,30-3.41c6.82,5.17-7.78,28.15-25.88,32.72C837.49,472.34,828.86,467.71,831.65,457.48Z"/><path class="cls-17" d="M732.91,393s8.65-10.28,27.07-12.08,28.09,1.89,31.84,9.43c4.22,8.49-22.08,26.71-42.55,23.71C731.22,411.45,724.92,402.74,732.91,393Z"/><path class="cls-12" d="M678.4,432.61c8.18-17,32-31.65,32-31.65s-14.86,18.58,0,23,77.28,5.95,97-13,5.94-29.35,5.94-29.35a100.48,100.48,0,0,1,28.61,8.91c9.94,5,16.55,13.24,19.6,17.71-5.9,2.61-18.19,8.72-36.39,21.12a158.53,158.53,0,0,0-31.66,29.25s-33.66-10.25-63.46-7.54-49.87,17.31-49.87,17.31a41.28,41.28,0,0,1-6.93-20.22A68.66,68.66,0,0,1,678.4,432.61Z"/><polygon class="cls-3" points="818.49 999.39 866.83 991.09 868.9 1003.17 845.82 1013.64 820.51 1011.2 818.49 999.39"/><path class="cls-18" d="M745.66,685.55h0a47.46,47.46,0,0,1-47.46-47.46V597.51a5.67,5.67,0,0,1,5.67-5.67h83.58a5.67,5.67,0,0,1,5.67,5.67v40.58A47.46,47.46,0,0,1,745.66,685.55Z"/><path class="cls-7" d="M701.95,594.56h87.23a1.5,1.5,0,0,1,1.5,1.5v16.73a2.3,2.3,0,0,1-2.3,2.3H702.75a2.3,2.3,0,0,1-2.3-2.3V596.05A1.5,1.5,0,0,1,701.95,594.56Z"/><path class="cls-19" d="M745.56,634.53h0a45.1,45.1,0,0,0-41.23,26.85,47.43,47.43,0,0,0,41.33,24.17h0a47.4,47.4,0,0,0,41.21-24A45.09,45.09,0,0,0,745.56,634.53Z"/><path class="cls-15" d="M682.08,914.37l-16.17-12.1a87.08,87.08,0,0,1-21.08,6.54c-17,3.14-30.72-3.2-36.73-9.21s-43.66-104.54-43.66-104.54h0l41.14,131.86a36.43,36.43,0,0,0,32.18,25.57c1,.07,1.89.11,2.83.11a36.41,36.41,0,0,0,32.83-20.53Z"/><path class="cls-16" d="M899.45,752.22a24,24,0,0,0-29.7,16.56L829.59,910.11l44.21,19.14c.77-2,1.47-4,2.05-6L916,781.92A24,24,0,0,0,899.45,752.22Z"/><path class="cls-10" d="M615.3,924.12a40.27,40.27,0,0,0-7.25,8.75,36.29,36.29,0,0,0,21.48,18,14.21,14.21,0,0,0,1.46-2.76c4.18-10,2.58-34,2.58-34S624.48,915.44,615.3,924.12Z"/><path class="cls-9" d="M810.44,923.64,643,912.88a24,24,0,0,0-3.09,48l167.45,10.76c1.42.09,2.83.14,4.23.14a67.21,67.21,0,0,0,62.22-42.52l-44.21-19.14A18.75,18.75,0,0,1,810.44,923.64Z"/><path class="cls-15" d="M811.58,971.77a67.21,67.21,0,0,0,62.22-42.52L840.88,915c.87,2.76,1.75,8.06.17,16.55-2.52,13.47-21.47,19-39.44,18.3-17-.63-163.45,4.18-177.25-29.87a24,24,0,0,0,15.54,40.89l167.45,10.76C808.77,971.72,810.18,971.77,811.58,971.77Z"/><path class="cls-7" d="M833,886.36l52.92,21.5a3.8,3.8,0,0,1,2.15,4.87l-6.16,16.33a3.87,3.87,0,0,1-5.15,2.17l-53.42-22.74a3.8,3.8,0,0,1-2-5l6.67-15.1A3.88,3.88,0,0,1,833,886.36Z"/><path class="cls-9" d="M592.11,772.29h0a7.16,7.16,0,0,1-2.93-9.69l11.87-22.11a7.16,7.16,0,0,1,9.69-2.93h0a7.16,7.16,0,0,1,2.92,9.69l-11.87,22.12A7.15,7.15,0,0,1,592.11,772.29Z"/><path class="cls-9" d="M585.39,752.54s3.12-16.25,1.34-26.27S575.15,709,571.14,715.41s3.34,9.3,4,18.43-5.2,27.39-5.2,27.39Z"/><path class="cls-20" d="M486.82,950.81H682.56a4.64,4.64,0,0,1,4.64,4.64v17.34a0,0,0,0,1,0,0H486.82a0,0,0,0,1,0,0v-22A0,0,0,0,1,486.82,950.81Z"/><path class="cls-20" d="M594.56,972.79h-293L221.64,747.22H501.75a18.25,18.25,0,0,1,17.19,12.15Z"/><path class="cls-8" d="M569.81,972.79h-293L204,767.16A15,15,0,0,1,218,747.22H477a18.25,18.25,0,0,1,17.19,12.15Z"/><path class="cls-21" d="M912.51,778.33c-2.37,8.11-12.09,12.41-21.69,9.6s-15.45-11.68-13.07-19.79,12.09-12.42,21.69-9.6S914.89,770.21,912.51,778.33Z"/><path class="cls-22" d="M585.88,804.38c-8.14,2.28-17.27-4.89-20.39-16s1-22,9.09-24.29,17.28,4.89,20.4,16S594,802.1,585.88,804.38Z"/><path class="cls-22" d="M729.8,929.77c-.37,4.58-20.18,6.72-44.24,4.77s-43.27-7.25-42.9-11.83,20.18-6.72,44.24-4.77S730.17,925.19,729.8,929.77Z"/><path class="cls-7" d="M465.84,773.23H317.55a6,6,0,0,1-6-6h0a6,6,0,0,1,6-6H465.84a6,6,0,0,1,6,6h0A6,6,0,0,1,465.84,773.23Z"/><path class="cls-7" d="M290.85,773.23H233.61a6,6,0,0,1-6-6h0a6,6,0,0,1,6-6h57.24a6,6,0,0,1,6,6h0A6,6,0,0,1,290.85,773.23Z"/><path class="cls-23" d="M553.31,926.24s-108.18,11.48-193.68-17.43S223.24,821.6,223.24,821.6l53.57,151.19h293Z"/><rect class="cls-24" x="232.81" y="972.79" width="711.04" height="47.09" rx="2.64" ry="2.64"/><path class="cls-25" d="M591.91,704.59h0a3.18,3.18,0,0,1-3.27-3.09l-.59-20.75a3.17,3.17,0,0,1,3.08-3.27h0a3.18,3.18,0,0,1,3.27,3.09l.6,20.75A3.18,3.18,0,0,1,591.91,704.59Z"/><path class="cls-25" d="M609.4,713.27h0a3.17,3.17,0,0,0,4.44.73l16.88-12.08a3.17,3.17,0,0,0,.74-4.43h0a3.18,3.18,0,0,0-4.44-.74l-16.88,12.08A3.18,3.18,0,0,0,609.4,713.27Z"/><path class="cls-25" d="M603,704.54h0a3.19,3.19,0,0,1-1.42-4.27l9.33-18.55a3.19,3.19,0,0,1,4.27-1.41h0a3.18,3.18,0,0,1,1.41,4.27l-9.32,18.55A3.18,3.18,0,0,1,603,704.54Z"/><circle class="cls-1" cx="328.19" cy="550.69" r="89.45" transform="translate(-293.27 393.36) rotate(-45)"/><circle class="cls-1" cx="471.84" cy="324.98" r="39.45"/><path class="cls-1" d="M508.23,444.84H351.31a17.16,17.16,0,0,1-17.16-17.16h0a17.16,17.16,0,0,1,17.16-17.16H508.23a17.16,17.16,0,0,1,17.17,17.16h0A17.16,17.16,0,0,1,508.23,444.84Z"/><circle class="cls-26" cx="841.17" cy="245.44" r="56.32"/><path class="cls-27" d="M739.36,277.84l35.73-15.5s-5.16-18.08,15.5-23.25,17.22,15.5,17.22,15.5-2.58-28.41,17.22-31S846.56,258,846.56,258,860.34,240,869,255.45c6,8.61,6,12.06,6,12.06l26.69,10.33Z"/><path class="cls-27" d="M340.82,382.93l25.81-11.2s-3.73-13.06,11.2-16.8,12.44,11.2,12.44,11.2-1.87-20.53,12.44-22.39,15.55,24.88,15.55,24.88,9.95-13.06,16.17-1.87c4.36,6.22,4.36,8.71,4.36,8.71l19.28,7.47Z"/><path class="cls-27" d="M484.86,242.68l22-9.54s-3.18-11.13,9.54-14.31,10.6,9.54,10.6,9.54-1.59-17.49,10.61-19.08,13.25,21.2,13.25,21.2,8.48-11.13,13.78-1.59c3.71,5.3,3.71,7.42,3.71,7.42l16.43,6.36Z"/><path id="_Path_" data-name="&lt;Path&gt;" class="cls-28" d="M940.07,812.2l-.56-.23c-5-2-10.92-.36-15.72,1.27-7,2.36-13.88,5-20.81,7.48l-77.49,27.87-27.73,10c-6.93,2.5-15.07,3.75-20.73,8.85-5.49,5-4.77,9.62-2.82,16l11.19,36.5L795,951.07c2.41,7.88,5.19,16.71,13.87,19.46,9.55,3,20.64-2.65,29.71-5.5l27.46-8.6,79.88-25,19.57-6.14c5.22-1.63,11.67-2.49,14.95-7.39,5.27-7.89-2.55-20.24-5.59-28.08L962.91,859q-5.14-13.31-10.3-26.61C949.86,825.27,947.66,815.6,940.07,812.2Z"/><path id="_Path_2" data-name="&lt;Path&gt;" class="cls-29" d="M941.07,810.86l-.53-.22c-4.71-1.81-10.42-.26-15,1.3-6.67,2.27-13.27,4.79-19.9,7.18l-74.14,26.75L805,855.44c-6.64,2.4-14.41,3.63-19.85,8.47-5.27,4.7-4.61,9.09-2.79,15.05l10.44,34.29q4.46,14.65,8.92,29.31c2.25,7.4,4.84,15.69,13.11,18.23,9.1,2.79,19.71-2.63,28.39-5.37l26.26-8.29L945.83,923l18.72-5.9c5-1.58,11.15-2.42,14.31-7.06,5.09-7.46-2.3-19-5.14-26.41l-11.16-28.88-9.66-25C950.32,823.1,948.28,814,941.07,810.86Z"/><path class="cls-30" d="M803.34,923.92c2.44-.64,5.15-1.42,7.56-2.21a2.43,2.43,0,0,0,1.56-3c-2.31-7.71-4.83-15.06-7.14-22.76a2.42,2.42,0,0,0-3.15-1.59c-2.29.84-5.12,1.82-7.35,2.64a2.41,2.41,0,0,0-1.49,2.91c2.09,7.81,4.28,14.59,7.11,22.48A2.43,2.43,0,0,0,803.34,923.92Z"/><path class="cls-31" d="M803.45,922.51c2-.55,4.29-1.22,6.29-1.9a2.16,2.16,0,0,0,1.28-2.67c-2-6.94-4.21-13.56-6.23-20.5a2.06,2.06,0,0,0-2.65-1.46c-1.91.73-4.26,1.57-6.12,2.29a2.16,2.16,0,0,0-1.22,2.59c1.84,7,3.75,13.14,6.2,20.24A2.07,2.07,0,0,0,803.45,922.51Z"/><path id="_Path_3" data-name="&lt;Path&gt;" class="cls-31" d="M966.11,888.22c-1.19-2.8-5.54-1-4.35,1.84S967.29,891,966.11,888.22Z"/><path id="_Path_4" data-name="&lt;Path&gt;" class="cls-31" d="M970.4,898.38c-1.18-2.8-5.54-1-4.35,1.84S971.58,901.18,970.4,898.38Z"/><path id="_Path_5" data-name="&lt;Path&gt;" class="cls-31" d="M962.32,880.4c-.78-4.85-3.67-9.77-5.38-14.38s-3.12-10.36-6.08-14.46a1.3,1.3,0,0,0-2.29,1c.46,5.29,3.29,10.72,5.11,15.66,1.66,4.49,3,10,6.49,13.47C961,882.48,962.5,881.47,962.32,880.4Z"/><path id="_Path_6" data-name="&lt;Path&gt;" class="cls-32" d="M910.31,940.24a7.4,7.4,0,0,0-1.12-3.66q13.3-4.26,26.81-7.86c.4,1.11.81,2.67,1.21,3.78C928.17,935.05,919.35,937.69,910.31,940.24Z"/><rect class="cls-33" x="850.12" y="779.71" width="36.98" height="172.18" rx="12" ry="12" transform="translate(1327.78 -271.41) rotate(67.08)"/><rect class="cls-34" x="880.37" y="839.74" width="29.64" height="29.64" rx="12" ry="12" transform="translate(1333.66 -302.76) rotate(67.08)"/><rect class="cls-34" x="860.34" y="859.14" width="18.9" height="18.9" rx="9.45" ry="9.45" transform="translate(408.51 2007.96) rotate(-112.92)"/><rect class="cls-35" x="835.73" y="824.07" width="80" height="122.82" rx="12" ry="12" transform="translate(1397.97 -245.12) rotate(69.48)"/><path class="cls-36" d="M885.67,852a4.58,4.58,0,0,1,.22,1.68,4.37,4.37,0,0,1-1.38,2.93,4,4,0,0,1-1.49.87l-5.78,1.91a1.12,1.12,0,0,1-.88-.06,1.18,1.18,0,0,1-.56-1.56,1,1,0,0,1,.65-.59l5.7-1.88a2.18,2.18,0,0,0,.7-.39,1.89,1.89,0,0,0,.47-.62,2.32,2.32,0,0,0,.21-.75,2.13,2.13,0,0,0-.1-.82,1.94,1.94,0,0,0-.38-.67,2.18,2.18,0,0,0-.59-.47,1.92,1.92,0,0,0-1.49-.14l-5.73,1.9a1.08,1.08,0,0,1-.89-.09,1.15,1.15,0,0,1-.6-.68,1.2,1.2,0,0,1,0-.89,1,1,0,0,1,.64-.59l5.7-1.88a4.42,4.42,0,0,1,1.72-.2,4.24,4.24,0,0,1,1.61.44,4.31,4.31,0,0,1,1.33,1,4.57,4.57,0,0,1,.87,1.54"/><path class="cls-36" d="M888.82,861.4a4.58,4.58,0,0,1,.22,1.68,4.34,4.34,0,0,1-.4,1.6,4.54,4.54,0,0,1-1,1.33,4,4,0,0,1-1.48.87l-5.79,1.91a1.1,1.1,0,0,1-.87-.06,1.14,1.14,0,0,1-.6-.67,1.19,1.19,0,0,1,0-.89,1.06,1.06,0,0,1,.65-.59l2-.66-1.26-3.83-2,.65a1.12,1.12,0,0,1-.89-.09,1.15,1.15,0,0,1-.6-.68,1.2,1.2,0,0,1,.05-.89,1,1,0,0,1,.64-.59l5.7-1.88a4.44,4.44,0,0,1,1.72-.2,4.39,4.39,0,0,1,2.94,1.45,4.57,4.57,0,0,1,.87,1.54m-3.52,3.3a2.08,2.08,0,0,0,.7-.39,1.89,1.89,0,0,0,.47-.62,1.91,1.91,0,0,0,.21-.75,2,2,0,0,0-.48-1.49,2,2,0,0,0-.59-.47,1.85,1.85,0,0,0-.71-.22,1.88,1.88,0,0,0-.78.08l-1.54.51,1.26,3.83Z"/><path class="cls-36" d="M884.29,876.74a1.12,1.12,0,0,1-.07.93,1.22,1.22,0,0,1-.7.6,1.18,1.18,0,0,1-.94-.06,1.16,1.16,0,0,1-.6-.71l-2-6a1.35,1.35,0,0,1,0-.66,1.15,1.15,0,0,1,.29-.53,1.29,1.29,0,0,1,.52-.33,1.4,1.4,0,0,1,.68,0h0l8.4,2.44-1.25-3.79a1.2,1.2,0,0,1,.06-.91,1.13,1.13,0,0,1,.71-.62,1.19,1.19,0,0,1,.94.07,1.21,1.21,0,0,1,.61.69l2,6a1.34,1.34,0,0,1,0,.66,1.45,1.45,0,0,1-.3.56,1.36,1.36,0,0,1-.54.33,1.23,1.23,0,0,1-.69,0L883,872.93Z"/><path class="cls-36" d="M895.13,880.5a3.79,3.79,0,0,1,.18,1.57,4.24,4.24,0,0,1-.41,1.53,4.69,4.69,0,0,1-.95,1.27,3.81,3.81,0,0,1-1.42.83l-3.18,1a3.67,3.67,0,0,1-1.58.17,4.44,4.44,0,0,1-1.52-.44,4.06,4.06,0,0,1-1.27-1,3.91,3.91,0,0,1-.82-1.39l-1-3.14a1.21,1.21,0,0,1,.06-.93,1.18,1.18,0,0,1,.72-.63l8.63-2.85a1.24,1.24,0,0,1,.92.07,1.14,1.14,0,0,1,.63.71Zm-3-1.22-6.3,2.08.66,2a1.67,1.67,0,0,0,.82,1,1.85,1.85,0,0,0,.61.17,1.62,1.62,0,0,0,.65-.08l3.18-1a1.78,1.78,0,0,0,.57-.32,1.66,1.66,0,0,0,.38-.5,1.63,1.63,0,0,0,.17-.62,1.67,1.67,0,0,0-.08-.66Z"/><path class="cls-36" d="M890.13,894.41a1.16,1.16,0,0,1-.07.93,1.24,1.24,0,0,1-1.64.54,1.13,1.13,0,0,1-.6-.7l-1.63-4.91a1.21,1.21,0,0,1,.08-.91,1.14,1.14,0,0,1,.71-.63l8.63-2.85a1.23,1.23,0,0,1,.92.06,1.12,1.12,0,0,1,.63.71l1.62,4.9a1.16,1.16,0,0,1-.07.93,1.24,1.24,0,0,1-.72.61,1.15,1.15,0,0,1-.93-.06,1.24,1.24,0,0,1-.6-.71l-1.24-3.78-2,.65.87,2.63a1.16,1.16,0,0,1-.08.91,1.18,1.18,0,0,1-.71.62,1.16,1.16,0,0,1-.93-.07,1.18,1.18,0,0,1-.6-.7l-.87-2.63-2.06.69Z"/><path class="cls-36" d="M892.9,902.78a1.2,1.2,0,0,1-.07.93,1.22,1.22,0,0,1-2.25-.16L889,898.64a1.21,1.21,0,0,1,.07-.91,1.17,1.17,0,0,1,.72-.62l8.63-2.85a1.25,1.25,0,0,1,.91,0,1.13,1.13,0,0,1,.64.71l1.62,4.91a1.16,1.16,0,0,1-.08.93,1.18,1.18,0,0,1-.71.6,1.15,1.15,0,0,1-.93-.06,1.18,1.18,0,0,1-.6-.71L898,896.92l-2,.64.86,2.63a1.14,1.14,0,0,1-.07.92,1.19,1.19,0,0,1-.71.61,1.12,1.12,0,0,1-.93-.07,1.18,1.18,0,0,1-.6-.7l-.87-2.62-2.06.68Z"/><path class="cls-36" d="M892.69,909.92a4.68,4.68,0,0,1-.24-1.72,4.33,4.33,0,0,1,1.39-2.93,3.92,3.92,0,0,1,1.48-.87l2.8-.92a4.34,4.34,0,0,1,4.65,1.24,4.45,4.45,0,0,1,.88,1.57,4.34,4.34,0,0,1-1.16,4.61,4,4,0,0,1-1.48.87l-2.8.93a4.41,4.41,0,0,1-3.33-.23,4.16,4.16,0,0,1-1.32-1,4.25,4.25,0,0,1-.87-1.54m7.44-.33a1.94,1.94,0,0,0,.7-.4,1.76,1.76,0,0,0,.47-.61,1.91,1.91,0,0,0,.21-.75,2,2,0,0,0-.1-.82,2,2,0,0,0-.39-.7,2.08,2.08,0,0,0-.59-.48,1.85,1.85,0,0,0-1.49-.13l-2.74.9a2,2,0,0,0-.71.38,1.85,1.85,0,0,0-.47.61,2.45,2.45,0,0,0-.21.76,2.14,2.14,0,0,0,.11.85,1.82,1.82,0,0,0,.39.67,2,2,0,0,0,.58.47,2,2,0,0,0,.72.22,1.83,1.83,0,0,0,.77-.08Z"/><path class="cls-36" d="M899.66,910.8l-.19,1a.42.42,0,0,0,0,.44.63.63,0,0,0,.39.31,1.37,1.37,0,0,1,.76.44,1,1,0,0,1,.19.88,1.3,1.3,0,0,1-.51.81,1.25,1.25,0,0,1-1,.16,3.09,3.09,0,0,1-1.08-.43,2.44,2.44,0,0,1-.75-.81,3.1,3.1,0,0,1-.39-1.13c0-.11,0-.22,0-.33a2.15,2.15,0,0,1,0-.8l.18-1a.47.47,0,0,0,0-.44.61.61,0,0,0-.4-.29,1.48,1.48,0,0,1-.74-.46,1,1,0,0,1-.2-.88,1.23,1.23,0,0,1,.52-.8,1.31,1.31,0,0,1,1-.17,3.09,3.09,0,0,1,1.08.43,2.67,2.67,0,0,1,.75.81,2.91,2.91,0,0,1,.38,1.13v.23a2.37,2.37,0,0,1,0,.92"/><text class="cls-37" transform="matrix(0.33, 0.94, -0.94, 0.33, 857, 863.45)">calling</text><path d="M915.16,843.66s-18.11-84.86,15.26-67.24C930.42,776.42,938.41,782,915.16,843.66Z"/><path d="M923.19,847.14s37.43-78.28,53.11-44C976.3,803.17,979.25,812.45,923.19,847.14Z"/><path d="M934.79,858.57s65.48-56.93,66.22-19.21C1001,839.36,1000,849,934.79,858.57Z"/><path class="cls-38" d="M914.28,802.05c0,6,1.2,9.33,2.69,7.49s2.7-8.22,2.7-14.23-1.21-9.35-2.7-7.47S914.28,796.07,914.28,802.05Z"/><path class="cls-38" d="M953.81,810.33c-4.4,4-6.06,7.2-3.7,7s7.88-3.57,12.31-7.63,6.07-7.22,3.67-7S958.21,806.29,953.81,810.33Z"/><path class="cls-38" d="M976.08,840.66c-5.82,1.38-8.8,3.32-6.67,4.34s8.62.74,14.47-.65,8.82-3.33,6.64-4.34S981.89,839.29,976.08,840.66Z"/><path d="M760,868.94s-45.25,7.9-35.27-9.4C724.73,859.54,727.82,855.42,760,868.94Z"/><path d="M762,864.76s-40.67-21.34-22.21-29C739.79,835.8,744.75,834.42,762,864.76Z"/><path d="M768.28,858.85s-28.83-35.76-8.86-35.41C759.42,823.44,764.52,824.15,768.28,858.85Z"/><path class="cls-38" d="M738,868.58c3.16.12,5-.45,4-1.27s-4.29-1.59-7.47-1.71-5,.46-4,1.28S734.81,868.47,738,868.58Z"/><path class="cls-38" d="M743.13,847.84c2,2.41,3.69,3.34,3.65,2.09s-1.73-4.24-3.79-6.66-3.69-3.35-3.65-2.08S741.08,845.43,743.13,847.84Z"/><path class="cls-38" d="M759.61,836.65c.62,3.11,1.59,4.73,2.17,3.62s.56-4.55-.06-7.67-1.59-4.73-2.17-3.6S759,833.55,759.61,836.65Z"/><text class="cls-39" transform="translate(339.54 1296.64)">HAPPENING NOW</text><text class="cls-40" transform="translate(266.95 1384.96)"><tspan class="cls-41">Y</tspan><tspan x="25.12" y="0">ou will </tspan><tspan class="cls-42" x="150.56" y="0">r</tspan><tspan x="165.44" y="0">eci</tspan><tspan class="cls-43" x="211.32" y="0">ev</tspan><tspan x="247.72" y="0">e a call short</tspan><tspan class="cls-44" x="462.71" y="0">l</tspan><tspan x="472.71" y="0">y f</tspan><tspan class="cls-45" x="516.03" y="0">r</tspan><tspan x="530.07" y="0">om nazdeeq</tspan><tspan x="-24.68" y="48">after placing </tspan><tspan class="cls-46" x="198.24" y="48">y</tspan><tspan x="216.64" y="48">our o</tspan><tspan class="cls-43" x="308.28" y="48">r</tspan><tspan x="323.12" y="48">de</tspan><tspan class="cls-47" x="362.72" y="48">r</tspan><tspan x="374.36" y="48">, I</tspan><tspan class="cls-48" x="410.6" y="48">f</tspan><tspan x="427.63" y="48"> </tspan><tspan class="cls-49" x="437.63" y="48">y</tspan><tspan x="456.04" y="48">ou do not pick up</tspan><tspan x="13.42" y="96">the call </tspan><tspan class="cls-50" x="145.54" y="96">w</tspan><tspan x="173.7" y="96">e will call </tspan><tspan class="cls-49" x="341.7" y="96">y</tspan><tspan class="cls-51" x="360.1" y="96">ou on di</tspan><tspan class="cls-52" x="501.33" y="96">f</tspan><tspan x="513.49" y="96">fe</tspan><tspan class="cls-42" x="544.33" y="96">r</tspan><tspan x="559.21" y="96">ent time</tspan><tspan class="cls-53" x="696.73" y="96">s</tspan><tspan x="709.57" y="96">.</tspan></text></svg>