<svg id="Layer_1" data-name="Layer 1" xmlns="http://www.w3.org/2000/svg" xmlns:xlink="http://www.w3.org/1999/xlink" viewBox="0 0 1296 1728"><defs><style>.cls-1,.cls-33{fill:none;}.cls-2{font-size:89.66px;font-family:TimesNewRomanPS-BoldMT, Times New Roman;font-weight:700;}.cls-2,.cls-27,.cls-5{fill:#181935;}.cls-3{font-size:80px;}.cls-4{letter-spacing:0em;}.cls-5{font-size:40px;font-family:TimesNewRomanSF, Times New Roman SF;}.cls-6{letter-spacing:-0.14em;}.cls-7{letter-spacing:-0.02em;}.cls-8{letter-spacing:-0.02em;}.cls-9{letter-spacing:-0.05em;}.cls-10{letter-spacing:-0.06em;}.cls-11{letter-spacing:-0.12em;}.cls-12{letter-spacing:-0.16em;}.cls-13{letter-spacing:-0.01em;}.cls-14{letter-spacing:-0.06em;}.cls-15{letter-spacing:-0.04em;}.cls-16{letter-spacing:0em;}.cls-17{letter-spacing:-0.01em;}.cls-18{letter-spacing:-0.01em;}.cls-19{letter-spacing:0.09em;}.cls-20{letter-spacing:0.02em;}.cls-21{letter-spacing:-0.03em;}.cls-22{fill:#252a4c;}.cls-23{clip-path:url(#clip-path);}.cls-24,.cls-72{fill:#2c3356;}.cls-25,.cls-71{fill:#fff;}.cls-26{fill:#ff008c;}.cls-28{fill:#5c4846;opacity:0.51;}.cls-29{fill:#fef0df;}.cls-30{fill:#00a998;}.cls-31{fill:#9d4838;}.cls-32{fill:#f79e88;}.cls-33{stroke:#f79e88;stroke-miterlimit:10;stroke-width:2px;}.cls-34{fill:#8b372f;}.cls-35{fill:#292929;}.cls-36{fill:#ecc19c;}.cls-37{fill:#cf9e76;}.cls-38{fill:#a03f35;}.cls-39{fill:#722d26;}.cls-40{fill:#dfb28b;}.cls-41{fill:#b9493e;}.cls-42{fill:#e2413e;}.cls-43{fill:#f56462;}.cls-44{fill:#d35345;}.cls-45{fill:#1c1c1c;}.cls-46{fill:#424242;}.cls-47{fill:#353535;}.cls-48{fill:#d1d1d1;}.cls-49{fill:#0e0e0e;}.cls-50{fill:#151515;}.cls-51{fill:#2d2d2d;}.cls-52{fill:#f0d0b4;}.cls-53{fill:#5d5d5d;}.cls-54{fill:#f3d5c5;}.cls-55{fill:#c2954e;}.cls-56{fill:#edbba8;}.cls-57{fill:#5e211c;}.cls-58{fill:#a62f1e;}.cls-59{fill:#e0bbaa;}.cls-60{fill:#cdcdcd;}.cls-61{fill:#394042;}.cls-62{fill:#454f51;}.cls-63{fill:#202728;}.cls-64{fill:#eff9ff;}.cls-65{fill:#bcd6e1;}.cls-66{fill:#e39880;}.cls-67{clip-path:url(#clip-path-2);}.cls-68,.cls-70{fill:#43703a;}.cls-69{fill:#80b975;}.cls-69,.cls-70,.cls-72,.cls-73,.cls-74,.cls-76,.cls-78,.cls-79{fill-rule:evenodd;}.cls-71{font-size:14.15px;font-family:MyriadPro-Regular, Myriad Pro;}.cls-73{fill:#1e243a;}.cls-74{fill:#877366;}.cls-75{fill:#9e877a;}.cls-76,.cls-77{fill:#7a655c;}.cls-78{fill:#6b5a51;}.cls-79{fill:#555f84;}</style><clipPath id="clip-path"><circle class="cls-1" cx="686.12" cy="651.36" r="388.36"/></clipPath><clipPath id="clip-path-2"><path class="cls-1" d="M424.83,615.77c-2-1.15-6.54-4.17-10.16-6.72-6.59-4.64-10.48-5.75-16.35-8.72a108.37,108.37,0,0,0-12.79-5.48c-9-3.16-18.17-3.31-23.73,5.7-5.22,8.47-2.68,17.4,2.08,24.81a52,52,0,0,0,5.39,6.93c1.74,1.9,20.64,19.13,25.1,21.29C404.94,658.7,426.24,634.18,424.83,615.77Z"/></clipPath></defs><title>checkout post</title><text class="cls-2" transform="translate(276.16 1296.64)">WITHIN <tspan class="cls-3" x="291.32" y="0">24-48</tspan><tspan class="cls-4" x="477.96" y="0" xml:space="preserve"> HOURS</tspan></text><text class="cls-5" transform="translate(152.29 1384.96)"><tspan class="cls-6">Y</tspan><tspan x="25.12" y="0">ou will be short</tspan><tspan class="cls-7" x="288.44" y="0">l</tspan><tspan x="298.44" y="0">y contacted </tspan><tspan class="cls-8" x="503.87" y="0">b</tspan><tspan x="525.15" y="0">y our cash collection partner</tspan><tspan class="cls-9" x="1010.14" y="0">s</tspan><tspan x="1023.54" y="0">,</tspan><tspan x="257.33" y="48">CHEE</tspan><tspan class="cls-10" x="372.37" y="48">T</tspan><tspan class="cls-11" x="396.69" y="48">A</tspan><tspan class="cls-12" x="422.69" y="48">Y</tspan><tspan x="447.01" y="48">, </tspan><tspan class="cls-13" x="467.85" y="48">T</tspan><tspan x="494.01" y="48">CS &amp; B</tspan><tspan class="cls-14" x="622.37" y="48">L</tspan><tspan x="646.61" y="48">UE-EX</tspan><tspan class="cls-15" x="127.02" y="96">f</tspan><tspan class="cls-16" x="138.74" y="96">or p</tspan><tspan class="cls-15" x="208.29" y="96">a</tspan><tspan x="226.7" y="96">yment. Upon p</tspan><tspan class="cls-15" x="484.61" y="96">a</tspan><tspan x="503.01" y="96">yment </tspan><tspan class="cls-15" x="618.85" y="96">y</tspan><tspan x="637.25" y="96">ou will </tspan><tspan class="cls-17" x="762.69" y="96">r</tspan><tspan x="777.57" y="96">ece</tspan><tspan class="cls-18" x="830.13" y="96">iv</tspan><tspan x="859.85" y="96">e a</tspan><tspan x="166.94" y="144">ha</tspan><tspan class="cls-18" x="209.02" y="144">r</tspan><tspan x="223.86" y="144">dco</tspan><tspan class="cls-13" x="285.54" y="144">p</tspan><tspan x="307.1" y="144">y o</tspan><tspan class="cls-19" x="359.17" y="144">f</tspan><tspan x="376.21" y="144"> </tspan><tspan class="cls-13" x="386.21" y="144">r</tspan><tspan x="401.09" y="144">eceipt o</tspan><tspan class="cls-19" x="531.97" y="144">f</tspan><tspan x="549.01" y="144"> </tspan><tspan class="cls-15" x="559.01" y="144">y</tspan><tspan x="577.41" y="144">our p</tspan><tspan class="cls-15" x="669.05" y="144">a</tspan><tspan x="687.45" y="144">yment and</tspan><tspan x="256.48" y="192">a p</tspan><tspan class="cls-15" x="308.55" y="192">a</tspan><tspan x="326.96" y="192">yment confi</tspan><tspan class="cls-20" x="528.63" y="192">r</tspan><tspan x="544.87" y="192">m</tspan><tspan class="cls-21" x="577.79" y="192">a</tspan><tspan x="596.63" y="192">tion email.</tspan></text><path id="_Path_" data-name="&lt;Path&gt;" class="cls-22" d="M894.18,187.19c.7,0,1.36.15,2.05.21a30.46,30.46,0,0,1,42.31-16.28,39.75,39.75,0,0,1,75.71-1c.69-.05,1.38-.1,2.08-.1a30.54,30.54,0,1,1,0,61.07,28.65,28.65,0,0,1-2.94-.15l0,.15H894.18a22,22,0,1,1,0-43.9Z"/><path id="_Path_2" data-name="&lt;Path&gt;" class="cls-22" d="M871.67,495.71c.52,0,1,.11,1.54.16A22.88,22.88,0,0,1,905,483.63a29.88,29.88,0,0,1,56.92-.75c.52,0,1-.08,1.56-.08a23,23,0,1,1,0,45.92c-.74,0-1.48-.05-2.21-.12l0,.12h-89.6a16.51,16.51,0,1,1,0-33Z"/><path id="_Path_3" data-name="&lt;Path&gt;" class="cls-22" d="M384.18,351.69a13.77,13.77,0,0,0-1.44.15,21.3,21.3,0,0,0-29.59-11.39,27.8,27.8,0,0,0-53-.7c-.48,0-1-.07-1.45-.07a21.36,21.36,0,0,0,0,42.72,19.81,19.81,0,0,0,2.05-.11l0,.11h83.37a15.36,15.36,0,0,0,0-30.71Z"/><path id="_Path_4" data-name="&lt;Path&gt;" class="cls-22" d="M437.05,481.83a5.78,5.78,0,0,0-.74.08A11.06,11.06,0,0,0,421,476a14.42,14.42,0,0,0-27.46-.36c-.25,0-.49,0-.75,0a11.08,11.08,0,0,0,0,22.15,9.46,9.46,0,0,0,1.07-.06v.06h43.21a8,8,0,0,0,0-15.92Z"/><path id="_Path_5" data-name="&lt;Path&gt;" class="cls-22" d="M622.46,143.09c-.49,0-1,.1-1.43.14a21.3,21.3,0,0,0-29.59-11.38,27.8,27.8,0,0,0-53-.7c-.48,0-1-.08-1.46-.08a21.36,21.36,0,0,0,0,42.72c.7,0,1.38,0,2.06-.1l0,.1h83.36a15.35,15.35,0,1,0,0-30.7Z"/><path id="_Path_6" data-name="&lt;Path&gt;" class="cls-22" d="M1005.12,256a11.69,11.69,0,0,1,1.19.12,17.64,17.64,0,0,1,24.51-9.43,23,23,0,0,1,43.87-.58c.4,0,.8-.06,1.21-.06a17.69,17.69,0,0,1,0,35.38c-.58,0-1.15,0-1.71-.08v.08h-69.06a12.72,12.72,0,1,1,0-25.43Z"/><path id="_Path_7" data-name="&lt;Path&gt;" class="cls-22" d="M992.08,434.75a8.94,8.94,0,0,1,.89.09,13.27,13.27,0,0,1,18.43-7.09,17.31,17.31,0,0,1,33-.44c.3,0,.6,0,.91,0a13.3,13.3,0,0,1,0,26.6c-.44,0-.86,0-1.28-.06l0,.06H992.08a9.56,9.56,0,0,1,0-19.12Z"/><path id="_Path_8" data-name="&lt;Path&gt;" class="cls-22" d="M709.63,351.31a7.77,7.77,0,0,0-.83.08,12.35,12.35,0,0,0-17.15-6.6,16.11,16.11,0,0,0-30.68-.4c-.28,0-.56,0-.84,0a12.38,12.38,0,1,0,0,24.75,11.71,11.71,0,0,0,1.19-.06v.06h48.3a8.9,8.9,0,0,0,0-17.79Z"/><path id="_Path_9" data-name="&lt;Path&gt;" class="cls-22" d="M740.26,426.71c-.14,0-.28,0-.43,0a6.4,6.4,0,0,0-8.89-3.42,8.35,8.35,0,0,0-15.9-.21l-.44,0a6.42,6.42,0,0,0,0,12.83c.21,0,.42,0,.62,0v0h25a4.61,4.61,0,0,0,0-9.22Z"/><path id="_Path_10" data-name="&lt;Path&gt;" class="cls-22" d="M847.69,230.44a7.8,7.8,0,0,0-.83.09,12.35,12.35,0,0,0-17.15-6.6,16.1,16.1,0,0,0-30.68-.4c-.28,0-.56-.05-.84-.05a12.38,12.38,0,1,0,0,24.75,11.71,11.71,0,0,0,1.19-.06v.06h48.3a8.9,8.9,0,1,0,0-17.79Z"/><g class="cls-23"><rect class="cls-24" x="292.48" y="924.14" width="800" height="123"/><polygon class="cls-25" points="1092.48 938.8 292.48 935.28 292.48 930.13 1092.48 937.94 1092.48 938.8"/><rect class="cls-26" x="292.48" y="247.14" width="800" height="677"/><rect class="cls-27" x="312.48" y="247.14" width="4" height="677"/><rect class="cls-27" x="371.48" y="247.14" width="4" height="677"/><rect class="cls-27" x="429.48" y="247.14" width="4" height="677"/><rect class="cls-27" x="488.48" y="247.14" width="4" height="677"/><rect class="cls-27" x="546.48" y="247.14" width="4" height="677"/><rect class="cls-27" x="605.48" y="247.14" width="4" height="677"/><rect class="cls-27" x="664.48" y="247.14" width="4" height="677"/><rect class="cls-27" x="722.48" y="247.14" width="4" height="677"/><rect class="cls-27" x="781.48" y="247.14" width="4" height="677"/><rect class="cls-27" x="840.48" y="247.14" width="4" height="677"/><rect class="cls-27" x="898.48" y="247.14" width="4" height="677"/><rect class="cls-27" x="957.48" y="247.14" width="4" height="677"/><rect class="cls-27" x="1015.48" y="247.14" width="4" height="677"/><rect class="cls-27" x="1074.48" y="247.14" width="4" height="677"/><path class="cls-28" d="M606.63,332.89s78.53,29.53,153.23-2.22l-18.64-31.53H711.48l-11.35-27H679.5l.23-25h-5.25l3,25-19.52.92-7.27,27.47-29.48-.41Z"/><polygon class="cls-28" points="521.86 399.13 540.48 924.13 569.48 924.13 533.95 399.13 521.86 399.13"/><polygon class="cls-25" points="292.48 881.41 1092.48 890.1 1092.48 884.13 292.48 880.55 292.48 881.41"/><polygon class="cls-28" points="917.78 383.41 994.16 418.01 923.48 924.13 974.94 969.64 878.04 975.7 917.78 383.41"/><polygon class="cls-29" points="559.39 924.13 522.03 370.13 838.48 370.13 803.07 924.13 559.39 924.13"/><polygon class="cls-30" points="540.48 399.13 809.48 399.13 782.45 900.13 577.79 900.13 540.48 399.13"/><path class="cls-31" d="M903.43,657.4s12.28,12.55,22.66,4.3h0l0,10s-18.45-5.12-22.64,6.55c-4.61,12.82,0-20.89,0-20.89"/><path class="cls-31" d="M926.89,696.49s-8.16-42.15,0-59.74C926.89,636.75,947.62,672.07,926.89,696.49Z"/><polygon class="cls-29" points="809.48 402.9 902.74 316.1 866.79 985.63 782.67 900.13 809.48 402.9"/><polygon class="cls-32" points="902.48 316.13 923.48 316.13 889 986.13 866.48 986.13 902.48 316.13"/><polygon class="cls-33" points="821.05 415.49 882.57 361.91 866.48 665.53 809.48 647.13 821.05 415.49"/><polygon class="cls-33" points="809.48 665.53 866.72 683.49 855.78 960.14 794.75 900.13 809.48 665.53"/><path class="cls-34" d="M620.52,526.3a9.5,9.5,0,0,0-3.88,4,14,14,0,0,0-1.18,6.59s1.61-4.55,3.28-6.28a35.08,35.08,0,0,1,3.62-3.2Z"/><path class="cls-34" d="M619.34,522.31a30.29,30.29,0,0,0-7.63,5.13c-3.7,3.86-3.7,9.78-3.7,9.78s3.46-6.94,7.56-9.09a12.81,12.81,0,0,1,7.35-1.53Z"/><path class="cls-34" d="M722.31,526.3a9.5,9.5,0,0,1,3.88,4,14,14,0,0,1,1.18,6.59s-1.61-4.55-3.28-6.28a34.39,34.39,0,0,0-3.61-3.2Z"/><path class="cls-34" d="M723.49,522.31a30.29,30.29,0,0,1,7.63,5.13c3.7,3.86,3.7,9.78,3.7,9.78s-3.46-6.94-7.55-9.09a12.81,12.81,0,0,0-7.35-1.53Z"/><polygon class="cls-35" points="671.42 749.28 619.55 749.28 619.55 764.39 625.34 946.03 654.01 946.03 671.42 771.33 688.83 946.03 717.5 946.03 723.28 764.39 723.28 749.28 671.42 749.28"/><path class="cls-25" d="M706,749.28H619.55V620.83c0-20.92,17-34.51,37.88-34.51h28c20.93,0,37.88,13.59,37.88,34.51Z"/><path class="cls-36" d="M670.3,622.62h0A16.29,16.29,0,0,1,654,606.33V565.8h32.58v40.53A16.29,16.29,0,0,1,670.3,622.62Z"/><path class="cls-37" d="M654,578.28a115.62,115.62,0,0,0,14.14.89c10.21-.35,13.07-1.43,18.44-3.51V565.8H654Z"/><path class="cls-34" d="M671.42,384.46a26.19,26.19,0,0,0-26.19,26.19,26.65,26.65,0,0,0,.35,4.13,28.85,28.85,0,0,1-1.83-3.91,18.14,18.14,0,0,1-1-7.93s-4.9,9.4-.51,18.59c3,6.3,4.39,2.2,5-1a26.19,26.19,0,1,0,24.25-36.08Z"/><path class="cls-38" d="M671.42,384.46c-.59,0-1.16.05-1.73.09-2.84.59-6.39,1.81-8.31,4.35-3.52,4.67,1.23,11.41,1.23,11.41a5.11,5.11,0,0,1-3.29-2.22c-1.23-1.91-1.53-5.93-1.53-5.93s-1.9,4.34,1.48,11.19S672.54,414.07,677,415.2c3.13.78,13.43,2.1,20,.94a26.16,26.16,0,0,0-25.6-31.68Z"/><path class="cls-39" d="M649.67,408.76a24,24,0,0,1,.2-13,26,26,0,0,0-4.64,14.87,26.65,26.65,0,0,0,.35,4.13,28.85,28.85,0,0,1-1.83-3.91,18.14,18.14,0,0,1-1-7.93s-4.9,9.4-.51,18.59c3,6.3,4.39,2.2,5-1a26,26,0,0,0,5.38,8.24,44.9,44.9,0,0,0,9.52-2S652.22,418.16,649.67,408.76Z"/><circle class="cls-36" cx="619.55" cy="509.95" r="14.3"/><circle class="cls-40" cx="723.28" cy="509.95" r="14.3"/><path class="cls-36" d="M671.42,574.89h0A51.87,51.87,0,0,1,619.55,523V444.6l22.87-25.17,3.67-1.63,77.19,26.8V523A51.87,51.87,0,0,1,671.42,574.89Z"/><path class="cls-41" d="M646.09,455.14a6,6,0,0,0,6.72,5.89c11.27-1.49,34.08-3.37,47.4,3.26C725,476.66,723.28,510,723.28,510s11.75-34.23,8.48-55.88-20.22-41-42.55-43.88c-34.32-4.47-43.12,7.61-43.12,7.61Z"/><path class="cls-34" d="M650.16,505a6,6,0,1,1-6-6A6,6,0,0,1,650.16,505Z"/><path class="cls-34" d="M703.57,505a6,6,0,1,1-6-6A6,6,0,0,1,703.57,505Z"/><path class="cls-25" d="M698.11,503.18a2.29,2.29,0,1,1-2.29-2.28A2.29,2.29,0,0,1,698.11,503.18Z"/><path class="cls-42" d="M671.42,556.07h0c-13.1,0-23.72-3.15-23.72-7v-6c0-.47,1.26-.84,2.83-.84H692.3c1.57,0,2.84.37,2.84.84v6C695.14,552.92,684.52,556.07,671.42,556.07Z"/><path class="cls-25" d="M650,542.59h42.7a1.2,1.2,0,0,1,1.2,1.2v0a1.84,1.84,0,0,1-1.84,1.84H650.66a1.84,1.84,0,0,1-1.84-1.84v0a1.2,1.2,0,0,1,1.2-1.2Z"/><path class="cls-43" d="M671.37,548.51h0c-9.2,0-17.1,1.63-20.61,4,4.07,2.13,11.79,3.58,20.66,3.58h0c8.82,0,16.51-1.44,20.59-3.56C688.53,550.16,680.6,548.51,671.37,548.51Z"/><path class="cls-34" d="M654.49,494a18.23,18.23,0,0,0-5.56-4.61,11.83,11.83,0,0,0-6.78-1.31,21.6,21.6,0,0,0-6.94,1.54,13.43,13.43,0,0,0-5.66,4.38,10.81,10.81,0,0,1,5.13-5.46,18.12,18.12,0,0,1,7.37-2,12.17,12.17,0,0,1,3.89.27,11.66,11.66,0,0,1,3.58,1.54A13.57,13.57,0,0,1,654.49,494Z"/><path class="cls-34" d="M685.14,494a13.55,13.55,0,0,1,5-5.64,11.82,11.82,0,0,1,3.59-1.54,12.17,12.17,0,0,1,3.89-.27,18.16,18.16,0,0,1,7.37,2,10.81,10.81,0,0,1,5.13,5.46,13.43,13.43,0,0,0-5.66-4.38,21.6,21.6,0,0,0-6.94-1.54,11.83,11.83,0,0,0-6.78,1.31A18.11,18.11,0,0,0,685.14,494Z"/><path class="cls-40" d="M651.52,570.92c-.08-.13-26-17.37-24.26-67.74A73.77,73.77,0,0,1,640.35,464c-3-4.51-12.17-1.92-20.8,8.37V523A51.87,51.87,0,0,0,651.52,570.92Z"/><path class="cls-41" d="M644.2,458.68v-40s-20.56-4.8-31.72,31.07C605,473.9,619.55,510,619.55,510s-2-38.19,20.8-46A5.61,5.61,0,0,0,644.2,458.68Z"/><path class="cls-38" d="M619.55,456.85c-6-9.32.5-23.83.93-24.77a68.61,68.61,0,0,0-8,17.63C605,473.9,619.55,510,619.55,510s-2-38.19,20.8-46C640.35,464,625.8,466.49,619.55,456.85Z"/><path class="cls-38" d="M729.83,485c0-.06-1.25-11.17-7.57-19.52s-27.56-16.13-42.88-19S652.27,433,653,422.34c.48-6.72,6.46-11.46,6.47-11.47-10.17,2.5-13.42,6.93-13.42,6.93v37.34a6,6,0,0,0,6.72,5.89c11.27-1.49,34.08-3.37,47.4,3.26C725,476.66,723.28,510,723.28,510A211.27,211.27,0,0,0,729.83,485Z"/><path class="cls-44" d="M713.23,429.34s-9.5-10.57-20.07-12.87-13,3.83-8,10.26,31.74,25.37,35.23,18.08C723.28,438.83,716.3,432.36,713.23,429.34Z"/><path class="cls-44" d="M635.53,425.35s-4.85.39-9.29,5.86-5.42,9.43-4,12.37c1.6,3.32,12.53-.88,16-8.12C641.3,429.08,640.08,425.05,635.53,425.35Z"/><path class="cls-45" d="M658.88,749.28l-1,27.91a6.94,6.94,0,0,1-7,6.7H620.17V779.3Z"/><path class="cls-45" d="M683.92,749.28l1,27.91a7,7,0,0,0,7,6.7h30.76l.18-4.59Z"/><path class="cls-41" d="M686.83,393.45s-4-4.19-8.57-4.8-5.93,5.31-3.78,11,10.38,10,14.73,6.84S689.14,395.43,686.83,393.45Z"/><path class="cls-46" d="M654,583l8.22,141.82-6.54,47.86a7.72,7.72,0,0,1-7.64,6.67H612.67a5.74,5.74,0,0,1-5.56-7.18l12.44-48-9.23-124,27.76-12.75A52,52,0,0,1,654,583Z"/><path class="cls-35" d="M646.9,584.25l-3.53,35.57,14,21.61L654,581.16S648.12,582.28,646.9,584.25Z"/><polygon class="cls-45" points="646.42 624.53 641.4 681.12 662.23 724.77 657.42 641.43 646.42 624.53"/><path class="cls-46" d="M686.57,583l-8.21,141.82,6.53,47.86a7.72,7.72,0,0,0,7.64,6.67h35.38a5.74,5.74,0,0,0,5.56-7.18l-12.44-48,9.23-124L702.5,587.36A51.81,51.81,0,0,0,686.57,583Z"/><path class="cls-35" d="M693.68,584.25l3.54,35.57-14.06,21.61,3.41-60.27S692.46,582.28,693.68,584.25Z"/><polygon class="cls-45" points="694.16 624.53 699.18 681.12 678.36 724.77 683.16 641.43 694.16 624.53"/><polygon class="cls-45" points="639.52 946.03 644.46 782.36 620.17 783.89 625.34 946.03 639.52 946.03"/><path class="cls-45" d="M671.42,771.33s18.58,4,23.89,35.84,8,138.86,8,138.86H688.82Z"/><polygon class="cls-45" points="658.17 754.49 682.41 754.49 681.7 749.28 658.88 749.28 658.17 754.49"/><path class="cls-47" d="M641.4,681.12l2.52-29.48h0a18.54,18.54,0,0,1-24.06,2.63l-.82-.56,7.65,71.06L609.22,764l-2.11,8.14a5.74,5.74,0,0,0,5.56,7.18h35.38a7.72,7.72,0,0,0,7.64-6.67l6.54-47.86Z"/><path class="cls-47" d="M699.18,681.12l-2.52-29.48h0a18.54,18.54,0,0,0,24.06,2.63l.83-.56-7.66,71.06L731.36,764l2.11,8.14a5.74,5.74,0,0,1-5.56,7.18H692.53a7.72,7.72,0,0,1-7.64-6.67l-6.53-47.86Z"/><path class="cls-48" d="M657.74,647s4.89-7.12,12.14-7.09,13,7.09,13,7.09l-4.48,77.79,3.34,24.51H658.88l3.35-24.51Z"/><path class="cls-40" d="M723.28,523V510s-.51,21.73-10,38.69c-9.6,17.16-25.33,23.54-26.57,24A51.89,51.89,0,0,0,723.28,523Z"/><path class="cls-34" d="M644.2,505a6.71,6.71,0,0,1-3.21.78,7.35,7.35,0,0,1-3.33-.74,6.44,6.44,0,0,1-2.61-2.21,6.6,6.6,0,0,1-1.21-3.09A22.69,22.69,0,0,0,636,502a9.21,9.21,0,0,0,2.38,1.62A16,16,0,0,0,644.2,505Z"/><path class="cls-25" d="M644.7,503.18a2.29,2.29,0,1,1-2.29-2.28A2.28,2.28,0,0,1,644.7,503.18Z"/><path class="cls-34" d="M697.61,505a16,16,0,0,0,5.87-1.34,9.21,9.21,0,0,0,2.38-1.62,23.86,23.86,0,0,0,2.1-2.3,6.59,6.59,0,0,1-1.2,3.09,6.41,6.41,0,0,1-2.62,2.21,7.28,7.28,0,0,1-3.32.74A6.71,6.71,0,0,1,697.61,505Z"/><path class="cls-49" d="M654,945.84V985.9a.73.73,0,0,1-.73.73h-2.77a.73.73,0,0,1-.73-.69l-2.26-40.1Z"/><path class="cls-45" d="M654,945.84l-10.35,38.65a2.9,2.9,0,0,1-2.8,2.14H603.41a2.3,2.3,0,0,1-2.29-2.3v-5.59a7.88,7.88,0,0,1,7.88-7.88h3.17a4.1,4.1,0,0,0,3.78-2.53l9.39-22.49Z"/><path class="cls-36" d="M639.52,945.84l-7.34,16.63a9.2,9.2,0,0,1-8.41,5.48h-2.25a2.94,2.94,0,0,1-2.72-4.07l7.44-18Z"/><path class="cls-50" d="M647.52,945.84l-8.17,28.24a5.26,5.26,0,0,1-4.67,3.79l-18.49,1.4c-.53,0-1,.11-1.56.17a60.11,60.11,0,0,1-9.68.18,12.2,12.2,0,0,1-3.82-1.22c0,.12,0,.23,0,.34v5.59a2.3,2.3,0,0,0,2.29,2.3h37.45a2.9,2.9,0,0,0,2.8-2.14L654,945.84Z"/><ellipse class="cls-51" cx="612.99" cy="973.96" rx="7.96" ry="2.22"/><path class="cls-49" d="M688.8,945.84V985.9a.73.73,0,0,0,.73.73h2.77a.72.72,0,0,0,.72-.69l2.26-40.1Z"/><path class="cls-45" d="M688.8,945.84l10.35,38.65a2.89,2.89,0,0,0,2.79,2.14h37.45a2.3,2.3,0,0,0,2.3-2.3v-5.59a7.88,7.88,0,0,0-7.89-7.88h-3.16a4.11,4.11,0,0,1-3.79-2.53l-9.38-22.49Z"/><path class="cls-36" d="M703.28,945.84l7.35,12.51c1.47,2.5,4.77,4.12,8.41,4.12h2.25c2.09,0,3.52-1.6,2.72-3.06l-7.44-13.57Z"/><path class="cls-50" d="M695.28,945.84l8.17,28.24a5.29,5.29,0,0,0,4.68,3.79l18.49,1.4c.52,0,1,.11,1.56.17a60.11,60.11,0,0,0,9.68.18,12.06,12.06,0,0,0,3.81-1.22c0,.12,0,.23,0,.34v5.59a2.3,2.3,0,0,1-2.3,2.3H701.94a2.89,2.89,0,0,1-2.79-2.14L688.8,945.84Z"/><ellipse class="cls-51" cx="729.82" cy="973.96" rx="7.96" ry="2.22"/><polygon class="cls-46" points="764.52 651.71 730.26 600.11 712.08 613.02 748.59 667.54 764.52 651.71"/><path class="cls-36" d="M781.08,579.19h0a11,11,0,0,0-11.32,10.72l-.47,17.26h0l-1.17,43.5c.4,4.8-2.51,3.12-3.59,1l-15.95,15.83s4.38,4.81,6,6.18c6.6,5.44,8.94,6.2,15.57,6.2a18.43,18.43,0,0,0,5-.63c21.17-6,16.58-88.78,16.58-88.78A11,11,0,0,0,781.08,579.19Z"/><path class="cls-40" d="M768.1,672.09c-10.11-2.45-7-17-7-17h0l-12.54,12.45s4.38,4.81,6,6.18c6.6,5.44,8.94,6.2,15.57,6.2a18.43,18.43,0,0,0,5-.63c21.17-6,16.58-88.78,16.58-88.78,0-.27,0-.53,0-.8-2.5,15.11-5.53,43.71-6.82,52.36C783.12,654.32,778.22,674.54,768.1,672.09Z"/><path class="cls-25" d="M739.9,661l18.78-20a1.82,1.82,0,0,1,2.55-.12l6.26,5.58a1.87,1.87,0,0,1,.09,2.68l-19.42,20a1.83,1.83,0,0,1-2.61,0l-5.62-5.59A1.87,1.87,0,0,1,739.9,661Z"/><path class="cls-52" d="M776.28,603.42c-2.57.12-4.81-3.31-5-7.65s1.72-8,4.29-8.08,4.81,3.31,5,7.65S778.85,603.3,776.28,603.42Z"/><polygon class="cls-45" points="717.82 728.45 690.87 728.45 690.87 735.19 704.34 738.71 717.82 735.03 717.82 728.45"/><path class="cls-53" d="M699.75,592.45s1-1.66,5-.05c4.24,1.69,16.64,8,18.56,9.6,2.16,1.78,2.08,4.92-.28,5.17s-20.58-8.4-22.46-10.16C698,594.62,699.75,592.45,699.75,592.45Z"/><path class="cls-53" d="M641.65,592.45s-1-1.66-5-.05c-4.24,1.69-16.64,8-18.56,9.6-2.16,1.78-2.09,4.92.28,5.17s20.58-8.4,22.46-10.16C643.37,594.62,641.65,592.45,641.65,592.45Z"/><polygon class="cls-47" points="727.58 636.17 727.58 621.44 748.59 651.78 742.43 658.34 727.58 636.17"/><path class="cls-36" d="M533.18,716.56l14.62-11,28.72-21.67a7.41,7.41,0,0,0,2.48-8.61l23.43-9.07,2.29,6,.07.18a24,24,0,0,1-8.08,27.54l-34,25.65-14.26,10.75A12.69,12.69,0,0,1,530.82,734,12.3,12.3,0,0,1,533.18,716.56Z"/><circle class="cls-1" cx="685.48" cy="643.65" r="393"/><circle class="cls-1" cx="691.31" cy="655.3" r="392.3"/><polygon class="cls-46" points="602.2 684.03 630.97 608.74 610.32 600.11 581.64 675.98 602.2 684.03"/><path class="cls-25" d="M602.88,684.62l-22-8.39a1.94,1.94,0,0,1-1.05-2.25l1.8-8a1.49,1.49,0,0,1,2-1.22l22.26,9a2,2,0,0,1,1,2.34l-2.05,7.44A1.47,1.47,0,0,1,602.88,684.62Z"/><polygon class="cls-47" points="612.14 624.53 596.12 669.8 605.84 673.71 614.22 652.57 612.14 624.53"/><path class="cls-25" d="M427.44,542.74a139.92,139.92,0,0,0-10.6,14.49c-10.59,1.12-17.28-15.61-19.51-24,10-2.23,21.74,2.79,31.22,6.13Z"/><path class="cls-54" d="M423.54,458c3.9,5,6.69,12.27,7.8,19,1.12,6.13-2.79,24,1.12,29,5,6.14,21.18-2.23,23.41,6.69,2.23,8.36-14.49,13.94-20.63,13.38-1.67,6.14,1.68,12.27,1.12,18.4-10,1.67-19.52-4.46-29-6.13,2.23,10,18.4,13.94,15.61,23.41-2.23,8.93-19.52,18.4-27.88,19.52-4.46.56-8.92,0-13.38.56-7.8,2.23-7.8,7.24-13.94,10.59-6.13,3.9-23.75-.11-31.55-.11,2.65-21.43-.23-24.42-17.51-34.46-22.3-13.38-48.5-27.32-53-55.75-7.25-42.93,34-74.15,71.36-80.84,29-5,70.25,2.79,87,30.66Z"/><path class="cls-55" d="M402.91,422.87c13.93,1.67,31.22,19,29.55,33.45-3.91,0-6.69-3.34-9.48-6.13,0,3.9-1.67,18.4-5.58,6.69,1.45,4.33-7.8,13-10.52,15.33a39.61,39.61,0,0,1-16.67,8.64c.2,6.5,6.69,20.34.61,25.72-7.3,6.47-13.39-25.44-23.59-8.43-6.15,10.23-7.09,40.9,11.07,39.68-1,.07-4.34,7.44-4.81,8.5-3.08,7-9.91,18.16-19.09,18.16-6.69-.55-5-5.57-5-11.7-1.11,10.59-15.81,38.41-25.47,18.26-2.23,15.61-15,7.72-16.69-4-.56,10.6-8.07,9.26-9.74-.22-5,12.82-8-3.52-9.08-6.86-2.23-7.81-12.8-15-18.74-22.68-9.6-12.43-15.61-25.21-15.05-40.83,1.11-36.23,34-72.47,69.13-80.84a167.07,167.07,0,0,1,33.45-5c5.58,0,11.71-.56,16.73,0,6.13,1.11,11.7,5,17.84,5Z"/><path class="cls-56" d="M385.47,524c1.64-8.8-11.16-25.49-16-11.45-2.3,6.62-.51,14.51,5.93,17C381,531.66,384.41,529.65,385.47,524Z"/><path d="M421.81,493.64a1.18,1.18,0,0,0-.56.05c-.59.21-1,1.21-1.27,1.74a11.33,11.33,0,0,0-1.05,4.79c0,2,.89,6.4,3.36,6.85,3.59.64,2.34-9.37,1.8-11.25A3.37,3.37,0,0,0,421.81,493.64Z"/><path class="cls-57" d="M430.91,449.65c19.65-4.25,37.71-13.81,55.77-21.78,13.81-6.37,30.81-16.47,45.69-17.53,23.37-1.59-1.07,17-8.5,22.31-12.75,8.5-29.75,14.87-44.62,20.19-18.06,6.37-37.72,10.62-56.31,15.4,0-5.84,1.6-11.15,2.13-16.47Z"/><path class="cls-58" d="M431.44,458.68l-1.06-5.31c2.65-12.22-10.63-48.34-21.25-56.31-11.29-8.39-26.05-6.69-40.67-3.23,15.23,9,25,41.77,28.87,55.7,2.64,11,3.16,22.35,3.27,33.52C413.35,477.16,425,469.33,431.44,458.68Z"/><path class="cls-25" d="M368.46,393.83c-12.2,2.89-24.32,7-34.22,7.48-28.16,1.06-62.67,5.67-79.67,32.76-10.09,17.53-9.55,61.74.07,66.85,29.54,15.7,80.66,1.85,112-6.12,10.28-2.76,22.56-6.48,34-11.75-.11-11.17-.63-22.53-3.27-33.52C393.41,435.6,383.69,402.87,368.46,393.83Z"/><path class="cls-57" d="M341.68,394.6c-8.43.41-28.67,6.79-16.48,13.09,10.65,5.49,32-10.55,18.78-13A10.69,10.69,0,0,0,341.68,394.6Z"/><path class="cls-59" d="M354.05,598.6c6.06,7.7,17.72,10.56,26.58,15.85a138.8,138.8,0,0,0,33.57,16,424.15,424.15,0,0,0,48.37,12.94c7.44,1.77,15.12,4.36,22.6,4.7,8.2,1.37,13.77-2,22.31-4.12s19.7.55,5.79,8.3c7.65,4,19.84,5.68,24.64,13.55-5.11,5-9.42-2.62-14.49,1,10.83,6.14,4.8,7.87-4,9.16,1.48.64,3.42,2.93,4.9,3.57-10.91,7.6-31,4-39.34-4-6.36-5.65-5.27-9.52-14-11.11-6.46-1.34-13.18-2.07-19.64-3.42-27.58-5.4-57.3-15.35-82.73-27.07-9.88-4.27-20.72-10.41-28-19.35-8.26-9.37-.9-25,11.19-19.08Z"/><path class="cls-60" d="M360.9,604.22c16.63,1.33,39.07,3.59,55,4.92,4.65,14,0,26.6,0,39.9-16.63,1.33-36.47-.82-51.76-10.13-15.3-8.65-20.07-29.11,3.2-33.1Z"/><path class="cls-61" d="M347.43,995.57c-.24-4.05-1.82-9.07,1.41-12C346,980.4,346,976.3,350.17,975c-6-4.07-2-9.86-1.41-15.3.66-5.87-.18-12.25-.52-17.95-1.35-23.18-.77-45.69.13-68.7.23-6.07,5.25-68.52.39-69l15.42,1.48c9.07,1.24,14.36,5.24,21.34,7.83,2.19.82,4,1.57,5.51,2.27,1.11-26.59,1.39-49.13-.37-57.48-1.33-8-1.33-8-9.31-10-6.65-1.33-14-.67-20.62-.67-13.3.67-29.26-.66-41.9,2v7.11a78.69,78.69,0,0,1,8.68-.45c3.72-.17,7.43-.71,11.15-.71v6a11.42,11.42,0,0,1-.18,3.54c-.53,2.13.36,1.42-1.59,2.31-2.3.88-6.2,0-8.68,0-3.15,0-6.6.91-9.65.45-1.13,9.73-5.46,19.09-3.72,29,1.33,7.32,5.32,12,6.65,19.29,1.33,6.65.67,14.63.67,21.28,0,25.62.35,51.24.81,76.85.21,11.85,1.21,24-.31,35.67-.94,7.21-3.1,19.84,1,24.18-2.83,1.61-2.77,6.43-1.32,9.36-3.52,2.43-1.08,5.31-.72,8.88s-3.73,53.07-2.77,53.25a145.21,145.21,0,0,0,27.95,2.13C346,1030.81,347.65,999.4,347.43,995.57Z"/><path class="cls-62" d="M384,941c0-12.12,4.95-75.83,7-125.43-1.51-.7-3.32-1.45-5.51-2.27-7-2.59-12.27-6.59-21.34-7.83L348.76,804c4.86.46-.16,62.91-.39,69-.9,23-1.48,45.52-.13,68.7.34,5.7,1.18,12.08.52,17.95-.61,5.44-4.59,11.23,1.41,15.3-4.15,1.35-4.22,5.45-1.33,8.63-3.23,2.92-1.65,7.94-1.41,12,.22,3.83-1.39,35.24-.65,52,11.78-.07,23.63-.94,35.9-.94C384,1013.39,384,974.29,384,941Z"/><path d="M328.21,767.3c2.48,0,6.38.88,8.68,0,1.95-.89,1.06-.18,1.59-2.31a11.42,11.42,0,0,0,.18-3.54v-6c-3.72,0-7.43.54-11.15.71a78.69,78.69,0,0,0-8.68.45v6.85a36.4,36.4,0,0,1-.27,4.31C321.61,768.21,325.06,767.3,328.21,767.3Z"/><path class="cls-63" d="M323.49,806.68l2-.58c1.32-.31,3.14-.94,5.43-1.34l3.67-.73c1.31-.26,2.7-.42,4.14-.61a39.91,39.91,0,0,1,4.46-.42c1.52-.06,3.07-.2,4.62-.19l4.64.15c1.53,0,3,.34,4.46.49a27.33,27.33,0,0,1,4.13.71l3.66.85a20.83,20.83,0,0,1,3,.93l2.3.81c1.28.45,2,.74,2,.74l-2.09-.4-2.37-.49c-.92-.17-1.93-.45-3.07-.58l-3.66-.54c-1.29-.24-2.67-.3-4.09-.43s-2.88-.29-4.38-.32l-4.53-.09c-1.52,0-3,.09-4.54.13s-3,.12-4.39.26-2.81.17-4.12.32l-3.67.42c-2.29.24-4.2.52-5.54.68Z"/><path class="cls-63" d="M351.42,977l.94-.06c.6,0,1.46,0,2.46,0,.5,0,1-.06,1.6-.07s1.17-.1,1.78-.12c1.24-.07,2.55-.22,3.87-.35s2.62-.31,3.86-.5l3.39-.47c2-.28,3.38-.38,3.38-.38a21.88,21.88,0,0,1-3.12,1.4,24.76,24.76,0,0,1-3.35,1,33.54,33.54,0,0,1-4,.73l-2,.15a18.83,18.83,0,0,1-2,0,21,21,0,0,1-3.52-.38,16.49,16.49,0,0,1-2.4-.62Z"/><path class="cls-63" d="M353.42,965.64a8.21,8.21,0,0,1,1.62.43,6.9,6.9,0,0,1,.73.29c.26.11.54.16.8.27.55.18,1.09.43,1.64.67a14.58,14.58,0,0,1,1.66.72c.27.11.51.28.76.38s.47.22.69.33a8.84,8.84,0,0,1,1.41.9,7.54,7.54,0,0,1-1.68.12,6.07,6.07,0,0,1-1.69-.2c-.61-.14-1.23-.35-1.86-.56a16,16,0,0,1-1.74-1,5.28,5.28,0,0,1-1.29-1.07A8.05,8.05,0,0,1,353.42,965.64Z"/><path class="cls-63" d="M351.42,984.26a29.15,29.15,0,0,1,3.08.54c.45.11.94.22,1.46.36s1.06.14,1.61.25c1.12.16,2.28.4,3.45.62s2.41.28,3.53.48c.57.07,1.1.22,1.63.26s1,.13,1.47.2a29.34,29.34,0,0,1,3.06.62,27.64,27.64,0,0,1-3.1.44c-.47,0-1,.09-1.51.11a12,12,0,0,1-1.69,0c-1.17,0-2.42-.17-3.67-.28-1.24-.27-2.49-.56-3.63-.88a9.32,9.32,0,0,1-1.62-.52c-.48-.21-.93-.44-1.35-.65A26.31,26.31,0,0,1,351.42,984.26Z"/><path class="cls-63" d="M323.88,973.86s.23,0,.63.17a10,10,0,0,0,1.6.46c.32.07.66.14,1,.23l1.17.18c.8.16,1.69.22,2.56.35,1.76.18,3.55.42,4.92.67a15,15,0,0,1,2.27.57,15.43,15.43,0,0,1-2.3.48,17.8,17.8,0,0,1-2.36.2,21.52,21.52,0,0,1-2.75-.1l-1.39-.24a7.46,7.46,0,0,1-1.33-.36,8.8,8.8,0,0,1-2.27-1,5.19,5.19,0,0,1-1.31-1.09C324,974,323.88,973.86,323.88,973.86Z"/><path class="cls-63" d="M322,983.21s.23-.07.62-.15,1-.13,1.62-.32c.32-.08.65-.17,1-.23s.75-.22,1.15-.3c.79-.18,1.64-.44,2.49-.64a36.61,36.61,0,0,1,4.84-.93,12.09,12.09,0,0,1,2.31-.07,19.07,19.07,0,0,1-2,1.08,25.81,25.81,0,0,1-4.68,1.7,17.94,17.94,0,0,1-2.67.45,10.74,10.74,0,0,1-2.41,0,6.22,6.22,0,0,1-1.64-.36Z"/><path class="cls-63" d="M327.83,970a5,5,0,0,1,1.28-.09,4,4,0,0,1,.59.05c.21,0,.41,0,.61,0a8.23,8.23,0,0,1,1.21.1,13,13,0,0,1,1.29.17c.42.1.81.18,1.15.28a5.57,5.57,0,0,1,1.19.46,4.68,4.68,0,0,1-1.14.59,6.61,6.61,0,0,1-2.69.33,12.79,12.79,0,0,1-1.48-.38,2.82,2.82,0,0,1-1.1-.61A4.89,4.89,0,0,1,327.83,970Z"/><path class="cls-63" d="M346.1,751.19s0,.84.06,2.31c0,.74,0,1.64,0,2.67,0,.51,0,1.06,0,1.63s-.1,1.19-.14,1.82c-.22,2.53-.41,5.51-.86,8.63s-.85,6.45-1.29,9.79-.94,6.66-1.22,9.77c-.13,1.55-.27,3.06-.29,4.48a28.64,28.64,0,0,0,.13,4,19.43,19.43,0,0,0,.6,3.31,7.56,7.56,0,0,0,.46,1.32,5,5,0,0,0,.54,1.06c.2.29.35.59.52.81l.49.53c.26.3.41.45.41.45l-.48-.37a5.12,5.12,0,0,1-1.23-1.22,5,5,0,0,1-.7-1,9.69,9.69,0,0,1-.66-1.33,15.37,15.37,0,0,1-1-3.38,39.91,39.91,0,0,1-.43-8.75c.14-3.18.63-6.56,1-9.87s1-6.71,1.51-9.8c.28-1.55.54-3,.8-4.47s.43-2.77.63-4,.38-2.39.47-3.41.21-1.92.29-2.65C346,752,346.1,751.19,346.1,751.19Z"/><path d="M348.93,754.72c-.35,4.43-.35,8.15-.35,11.87,12,.71,25.1,1.64,37.32,1.29a45.58,45.58,0,0,0-1-12.09Z"/><path class="cls-64" d="M335.83,587.76c-19.12,10.62-16.47,45.68-16.47,65.33,0,26.56,8.5,57.37,0,82.33-1.06,3.72-6.37,3.19-2.12,8-5.32,1.6-4.78,10.63-.53,13.81,4.24,2.66,16,1.72,20.71,1.07,10.34-1.43,22.84,0,34.53-.54,14.85-.67,29.37,8.38,25.5-14.87-1.07-5.31-5.85-10.62-6.91-15.93-.53-5.32.53-14.35.53-20.19-1.59-35.06,19.12-113.14-30.81-120Z"/><path class="cls-65" d="M337.08,579.21c-13.28,1.06-18.78,9.61-22.5,22.89,25.5,1.59,50.46-1.06,75.43,3.19-1.06-6.38-1.79-17.17-8.87-18.6-8.52-1.71-11.42-1.61-18.86-2.67Z"/><path class="cls-60" d="M323.85,745.58l2.55.07c1.62.09,3.94.14,6.7.34,1.39.12,2.88.19,4.46.2a45.4,45.4,0,0,0,4.94,0c1.73-.14,3.43-.11,5.25-.41l5.48-.71c1.84-.18,3.65-.51,5.43-.81l5.26-.83,9.35-1.52c2.75-.45,5.06-.7,6.66-.93l2.53-.3-2.46.65c-1.58.38-3.82,1-6.53,1.59s-5.85,1.39-9.26,2.1-7.09,1.42-10.76,1.88l-5.49.64-1.35.16c-.49,0-.93,0-1.39,0l-2.68.06a32,32,0,0,1-5.06-.25c-1.6-.12-3.1-.29-4.47-.5-2.76-.37-5-.78-6.65-1Z"/><path class="cls-60" d="M333,736.79l1.14.3c.72.16,1.73.57,3,.83q.92.21,1.95.48c.67.2,1.44.29,2.2.47,1.51.35,3.17.59,4.8.89l9.14,1.35c2.51.38,4.19.77,4.19.77a41.43,41.43,0,0,1-4.26.28c-1.28,0-2.77,0-4.36-.08-.8-.05-1.63-.06-2.46-.19l-2.54-.32-2.51-.5a22.82,22.82,0,0,1-2.4-.64,19.73,19.73,0,0,1-2.21-.72c-.69-.28-1.34-.56-1.93-.82a20.76,20.76,0,0,1-2.72-1.47Z"/><path class="cls-54" d="M365.93,599.13c13,21.84,33.61,41.54,55.43,51.75,13.4,6.56,26.46,14.52,41.27,17.84,6.87,1.43,22.33,4.73,27.57,2.63,11.88-4.77,10.18-3.28,18.43-3.58s11.15,1.55,4.63,6.63c-4,3.11-9.49,2-10.51,3.28-2.22,2.83,16.82,13.08,21.63,15.31,3.08,1.43,6.23,2.68,9.43,3.83,1.55.56,7.35,1.34,5.2,4.68-.69,1.08-1.38,1.15-2.45,1.52-1.27.45-.92.33-1.82,1.44-1.6,2-3.82,2.43-5.92,2.94-1,.25-1.8.82-2.8,1.06-2.3.55-9.79-.87-11.5-1.18a43,43,0,0,1-12.83-4.69c-6-3.39-10.38-10.67-16.16-13.17-6.32-2.73-15.13-1.14-22-2.57-25.65-5.68-48.2-18.52-70.48-32-17.29-10.56-28.4-23.86-37.48-44.75Z"/><path class="cls-25" d="M424.83,615.77c-2-1.15-6.54-4.17-10.16-6.72-6.59-4.64-10.48-5.75-16.35-8.72a108.37,108.37,0,0,0-12.79-5.48c-9-3.16-18.17-3.31-23.73,5.7-5.22,8.47-2.68,17.4,2.08,24.81a52,52,0,0,0,5.39,6.93c1.74,1.9,20.64,19.13,25.1,21.29C404.94,658.7,426.24,634.18,424.83,615.77Z"/><path class="cls-66" d="M639.17,639.28s-.11.46-.34,1.27a8.41,8.41,0,0,1-.81,1.37,8.73,8.73,0,0,1-1.56,1.32c-.62.42-1.26.82-2,1.23a17.76,17.76,0,0,1-2.26,1.24c-.84.36-1.68.82-2.58,1.14l-2.72.94-2.8.7c-.92.21-1.85.32-2.73.48a24.52,24.52,0,0,1-2.59.27,18.8,18.8,0,0,1-2.32.1,29,29,0,0,1-3.46-.15c-.84-.07-1.31-.14-1.31-.14s.47-.09,1.3-.21,2-.31,3.38-.55c.7-.1,1.44-.24,2.23-.41s1.63-.29,2.48-.5l2.62-.61,2.67-.74c1.78-.55,3.54-1.14,5.13-1.77.8-.28,1.59-.68,2.33-1l2.08-.93a14.7,14.7,0,0,0,1.61-.9,9.77,9.77,0,0,0,1-1C638.91,639.68,639.17,639.28,639.17,639.28Z"/><g class="cls-67"><path class="cls-65" d="M417.68,609.59c-1.36,18-15.06,34.09-29.44,43.89-1,.66-.05,2.25.93,1.58,15-10.21,28.94-26.69,30.35-45.47.09-1.18-1.75-1.18-1.84,0Z"/><path class="cls-65" d="M413.29,607.8c-4.64,19.53-19.12,34.18-34.86,45.68-.94.69,0,2.28.93,1.58,16.12-11.78,30.95-26.76,35.7-46.77.27-1.15-1.5-1.64-1.77-.49Z"/></g><rect class="cls-68" x="496.43" y="694.38" width="30.6" height="62.97" transform="translate(-345.46 958.18) rotate(-69.98)"/><path class="cls-69" d="M534.63,747.46,484,729h0a4,4,0,0,0-2.34-5.16l7.14-19.59,50.59,18.44a4,4,0,0,0,2.34,5.15Z"/><path class="cls-70" d="M508.44,734.88a9.59,9.59,0,1,1,12.3-5.73A9.6,9.6,0,0,1,508.44,734.88Z"/><text class="cls-71" transform="translate(504 730.56)">RS</text><path class="cls-24" d="M319.53,588.78S373,717.65,397.84,729.33l6.06,12.48s-40.34-25.94-93-136Z"/><path class="cls-72" d="M289.14,728.27,403,714.16a9.77,9.77,0,0,1,10.94,8.37l8.62,69.54A9.78,9.78,0,0,1,414,802.86L300.13,817a9.77,9.77,0,0,1-10.94-8.37l-8.62-69.54A9.78,9.78,0,0,1,289.14,728.27Z"/><path class="cls-73" d="M297.76,759.52l42.13-5.22,4.87,39.36a6.08,6.08,0,0,1-5.34,6.73l-30,3.72a6.11,6.11,0,0,1-6.83-5.23Z"/><path class="cls-74" d="M314.58,764.28,324.73,763l2.7,21.74a5.1,5.1,0,0,1-4.46,5.62h0a5.09,5.09,0,0,1-5.7-4.36Z"/><rect class="cls-75" x="314.68" y="775.84" width="13.54" height="4.57" transform="translate(-93.25 45.43) rotate(-7.06)"/><path class="cls-73" d="M360.14,751.79l42.14-5.22,4.87,39.36a6.08,6.08,0,0,1-5.34,6.73l-30,3.72a6.11,6.11,0,0,1-6.83-5.23Z"/><path class="cls-74" d="M377,756.55l10.16-1.26L389.82,777a5.1,5.1,0,0,1-4.46,5.62h0a5.09,5.09,0,0,1-5.7-4.36Z"/><rect class="cls-75" x="377.07" y="768.11" width="13.54" height="4.57" transform="translate(-91.82 53.05) rotate(-7.06)"/><path class="cls-76" d="M295.66,811.38a5.09,5.09,0,0,1-2-3.84l-1.23.15a6.42,6.42,0,0,0,2.41,4.64Z"/><rect class="cls-77" x="287.5" y="765.13" width="1.25" height="4.89" transform="translate(-92.2 41.26) rotate(-7.06)"/><rect class="cls-77" x="285.25" y="746.92" width="1.25" height="4.89" transform="translate(-89.98 40.84) rotate(-7.06)"/><rect class="cls-77" x="288.26" y="771.2" width="1.25" height="4.89" transform="translate(-92.94 41.4) rotate(-7.06)"/><rect class="cls-77" x="286" y="752.99" width="1.25" height="4.89" transform="translate(-90.72 40.98) rotate(-7.06)"/><rect class="cls-77" x="289.01" y="777.26" width="1.25" height="4.89" transform="translate(-93.68 41.53) rotate(-7.06)"/><rect class="cls-77" x="289.76" y="783.33" width="1.25" height="4.89" transform="translate(-94.42 41.67) rotate(-7.06)"/><rect class="cls-77" x="290.51" y="789.4" width="1.25" height="4.89" transform="translate(-95.16 41.81) rotate(-7.06)"/><rect class="cls-77" x="291.26" y="795.47" width="1.25" height="4.89" transform="translate(-95.9 41.95) rotate(-7.06)"/><rect class="cls-77" x="292.02" y="801.54" width="1.25" height="4.89" transform="translate(-96.65 42.09) rotate(-7.06)"/><path class="cls-76" d="M301.1,812.29a16.51,16.51,0,0,1-2.51.22,5.28,5.28,0,0,1-2-.54l-.56,1.09a6.34,6.34,0,0,0,2.58.67,15,15,0,0,0,2.64-.23Z"/><rect class="cls-77" x="327.12" y="808.75" width="4.98" height="1.23" transform="translate(-97.03 46.68) rotate(-7.06)"/><rect class="cls-77" x="320.51" y="727.4" width="4.98" height="1.22" transform="translate(-87.07 45.25) rotate(-7.06)"/><rect class="cls-77" x="333.3" y="807.98" width="4.98" height="1.23" transform="translate(-96.88 47.43) rotate(-7.06)"/><rect class="cls-77" x="326.7" y="726.64" width="4.98" height="1.22" transform="translate(-86.93 46) rotate(-7.06)"/><rect class="cls-77" x="339.48" y="807.21" width="4.98" height="1.23" transform="translate(-96.74 48.18) rotate(-7.06)"/><rect class="cls-77" x="332.87" y="725.87" width="4.98" height="1.22" transform="translate(-86.79 46.75) rotate(-7.06)"/><rect class="cls-77" x="345.66" y="806.45" width="4.98" height="1.23" transform="translate(-96.6 48.94) rotate(-7.06)"/><rect class="cls-77" x="339.05" y="725.11" width="4.98" height="1.22" transform="translate(-86.65 47.51) rotate(-7.06)"/><rect class="cls-77" x="351.84" y="805.68" width="4.98" height="1.23" transform="translate(-96.46 49.69) rotate(-7.06)"/><rect class="cls-77" x="345.24" y="724.34" width="4.98" height="1.22" transform="translate(-86.51 48.26) rotate(-7.06)"/><path class="cls-76" d="M417.7,795.05l1.17.41a6,6,0,0,0,.36-2.94l-.27-2.18-1.23.16.28,2.28A4.68,4.68,0,0,1,417.7,795.05Z"/><rect class="cls-77" x="417.27" y="784.33" width="1.25" height="4.89" transform="translate(-93.58 57.36) rotate(-7.06)"/><rect class="cls-77" x="416.51" y="778.27" width="1.25" height="4.89" transform="translate(-92.84 57.22) rotate(-7.06)"/><rect class="cls-77" x="415.76" y="772.2" width="1.25" height="4.89" transform="translate(-92.1 57.08) rotate(-7.06)"/><rect class="cls-77" x="415.01" y="766.13" width="1.25" height="4.89" transform="translate(-91.36 56.94) rotate(-7.06)"/><rect class="cls-77" x="414.26" y="760.06" width="1.25" height="4.89" transform="translate(-90.62 56.81) rotate(-7.06)"/><rect class="cls-77" x="413.51" y="753.99" width="1.25" height="4.89" transform="translate(-89.88 56.67) rotate(-7.06)"/><rect class="cls-77" x="411.25" y="735.78" width="1.25" height="4.89" transform="translate(-87.65 56.25) rotate(-7.06)"/><rect class="cls-77" x="412.75" y="747.92" width="1.25" height="4.89" transform="translate(-89.14 56.53) rotate(-7.06)"/><rect class="cls-77" x="410.5" y="729.71" width="1.25" height="4.89" transform="translate(-86.91 56.11) rotate(-7.06)"/><rect class="cls-77" x="302.39" y="811.82" width="4.98" height="1.22" transform="translate(-97.59 43.66) rotate(-7.06)"/><rect class="cls-77" x="295.79" y="730.47" width="4.98" height="1.23" transform="translate(-87.64 42.23) rotate(-7.06)"/><path class="cls-76" d="M294.5,730.94l.15,1.21-3.62.45-.15-1.22,3.62-.44Zm-4.7,1.81h-.12a5.29,5.29,0,0,0-3.16,1.6l-.89-.83a6.48,6.48,0,0,1,3.81-2l.21,0Z"/><rect class="cls-77" x="308.57" y="811.05" width="4.98" height="1.22" transform="translate(-97.45 44.41) rotate(-7.06)"/><rect class="cls-77" x="301.97" y="729.71" width="4.98" height="1.23" transform="translate(-87.5 42.98) rotate(-7.06)"/><rect class="cls-77" x="314.76" y="810.29" width="4.98" height="1.22" transform="translate(-97.31 45.17) rotate(-7.06)"/><rect class="cls-77" x="308.15" y="728.94" width="4.98" height="1.23" transform="translate(-87.36 43.74) rotate(-7.06)"/><rect class="cls-77" x="358.02" y="804.93" width="4.98" height="1.22" transform="translate(-96.32 50.45) rotate(-7.06)"/><rect class="cls-77" x="351.42" y="723.58" width="4.98" height="1.23" transform="translate(-86.37 49.02) rotate(-7.06)"/><rect class="cls-77" x="364.2" y="804.16" width="4.98" height="1.22" transform="translate(-96.18 51.2) rotate(-7.06)"/><rect class="cls-77" x="357.6" y="722.81" width="4.98" height="1.23" transform="translate(-86.23 49.77) rotate(-7.06)"/><rect class="cls-77" x="370.39" y="803.4" width="4.98" height="1.22" transform="translate(-96.04 51.96) rotate(-7.06)"/><rect class="cls-77" x="363.78" y="722.05" width="4.98" height="1.23" transform="translate(-86.09 50.53) rotate(-7.06)"/><rect class="cls-77" x="376.57" y="802.63" width="4.98" height="1.22" transform="translate(-95.9 52.71) rotate(-7.06)"/><rect class="cls-77" x="369.96" y="721.28" width="4.98" height="1.23" transform="translate(-85.95 51.28) rotate(-7.06)"/><rect class="cls-77" x="382.75" y="801.86" width="4.98" height="1.22" transform="translate(-95.76 53.46) rotate(-7.06)"/><rect class="cls-77" x="376.15" y="720.52" width="4.98" height="1.23" transform="translate(-85.8 52.03) rotate(-7.06)"/><rect class="cls-77" x="388.93" y="801.1" width="4.98" height="1.22" transform="translate(-95.62 54.22) rotate(-7.06)"/><rect class="cls-77" x="382.33" y="719.75" width="4.98" height="1.23" transform="translate(-85.66 52.79) rotate(-7.06)"/><rect class="cls-77" x="395.11" y="800.33" width="4.98" height="1.22" transform="translate(-95.47 54.97) rotate(-7.06)"/><rect class="cls-77" x="388.51" y="718.98" width="4.98" height="1.23" transform="translate(-85.52 53.54) rotate(-7.06)"/><rect class="cls-77" x="401.3" y="799.57" width="4.98" height="1.22" transform="translate(-95.33 55.73) rotate(-7.06)"/><rect class="cls-77" x="394.69" y="718.22" width="4.98" height="1.23" transform="translate(-85.38 54.3) rotate(-7.06)"/><rect class="cls-77" x="407.48" y="798.8" width="4.98" height="1.22" transform="translate(-95.19 56.48) rotate(-7.06)"/><path class="cls-76" d="M401,719l-.15-1.22,2.62-.32a6.85,6.85,0,0,1,2.57.2l-.34,1.18a4.94,4.94,0,0,0-2.13-.16Z"/><rect class="cls-77" x="320.94" y="809.52" width="4.98" height="1.22" transform="translate(-97.17 45.92) rotate(-7.06)"/><rect class="cls-77" x="314.33" y="728.18" width="4.98" height="1.23" transform="translate(-87.22 44.49) rotate(-7.06)"/><rect class="cls-77" x="286.75" y="759.06" width="1.25" height="4.89" transform="translate(-91.46 41.12) rotate(-7.06)"/><rect class="cls-77" x="284.5" y="740.85" width="1.25" height="4.89" transform="translate(-89.24 40.7) rotate(-7.06)"/><rect class="cls-77" x="412.01" y="741.86" width="1.25" height="4.89" transform="translate(-88.4 56.39) rotate(-7.06)"/><rect class="cls-77" x="409.75" y="723.65" width="1.25" height="4.89" transform="translate(-86.17 55.98) rotate(-7.06)"/><path class="cls-76" d="M418.25,796.67,417.2,796a5.12,5.12,0,0,1-3.62,2.33c.06.4.13.8.19,1.2A6.44,6.44,0,0,0,418.25,796.67Z"/><path class="cls-76" d="M410.49,722.32l-1.21.28a5,5,0,0,0-2.61-3.38c.21-.35.41-.71.6-1.07A6.3,6.3,0,0,1,410.49,722.32Z"/><path class="cls-76" d="M285.29,739.57l-1.24.16a6.93,6.93,0,0,1,.75-5.12l1.06.62A5.55,5.55,0,0,0,285.29,739.57Z"/><path class="cls-78" d="M310.42,726.32l9.93-1.24,1.3,10.49c.17,1.35-.43,2.55-1.33,2.67l-6.65.82c-.9.11-1.78-.91-1.95-2.26Z"/><path class="cls-78" d="M371.73,718.72l9.93-1.23L383,728c.16,1.35-.44,2.56-1.34,2.67l-6.65.82c-.9.11-1.78-.9-2-2.26Z"/><path class="cls-79" d="M295,749,340,743.4l1.58,12.71a13,13,0,0,1-11.38,14.33l-19,2.35a13,13,0,0,1-14.53-11.11Z"/><rect class="cls-77" x="298.66" y="748.46" width="1.25" height="4.89" transform="translate(-90.07 42.5) rotate(-7.06)"/><rect class="cls-77" x="299.41" y="754.53" width="1.25" height="4.89" transform="translate(-90.81 42.64) rotate(-7.06)"/><rect class="cls-77" x="336.46" y="750.18" width="1.25" height="4.89" transform="translate(-89.99 47.16) rotate(-7.06)"/><rect class="cls-77" x="335.71" y="744.11" width="1.25" height="4.89" transform="translate(-89.25 47.03) rotate(-7.06)"/><path class="cls-76" d="M299.86,760.69l1.24-.15a8.27,8.27,0,0,0,1.51,4.28l-1,.71A10.18,10.18,0,0,1,299.86,760.69Z"/><path class="cls-76" d="M338.15,756.19l-1.24.15a8.15,8.15,0,0,1-.53,4.5c.39.14.76.31,1.15.46A10.25,10.25,0,0,0,338.15,756.19Z"/><path class="cls-76" d="M302.42,766.54l.92-.83a7.48,7.48,0,0,0,3.9,2.35c-.11.39-.23.78-.35,1.17A9.49,9.49,0,0,1,302.42,766.54Z"/><path class="cls-76" d="M336.94,762.47c-.36-.2-.71-.42-1.07-.61a8.14,8.14,0,0,1-3.29,3.14c.19.35.37.72.58,1.07A10.31,10.31,0,0,0,336.94,762.47Z"/><path class="cls-76" d="M313.17,768l.15,1.22-2.57.32a10.36,10.36,0,0,1-2.55,0c.06-.4.12-.81.17-1.21a7.79,7.79,0,0,0,2.06,0C311.33,768.22,312.25,768.1,313.17,768Z"/><path class="cls-76" d="M326.76,766.3l.15,1.21,2.57-.31a10.45,10.45,0,0,0,2.47-.58c-.15-.38-.29-.76-.43-1.15a7.77,7.77,0,0,1-2,.49C328.6,766.09,327.68,766.18,326.76,766.3Z"/><rect class="cls-77" x="314.46" y="767.52" width="4.98" height="1.22" transform="translate(-92.05 44.81) rotate(-7.06)"/><rect class="cls-77" x="320.64" y="766.75" width="4.98" height="1.22" transform="translate(-91.91 45.56) rotate(-7.06)"/><path class="cls-79" d="M357.41,741.24l44.94-5.57,1.58,12.71a13,13,0,0,1-11.38,14.32l-19,2.36A13,13,0,0,1,359,754Z"/><rect class="cls-77" x="361.05" y="740.73" width="1.25" height="4.89" transform="translate(-88.64 50.12) rotate(-7.06)"/><rect class="cls-77" x="361.8" y="746.8" width="1.25" height="4.89" transform="translate(-89.38 50.25) rotate(-7.06)"/><rect class="cls-77" x="398.85" y="742.45" width="1.25" height="4.89" transform="translate(-88.57 54.78) rotate(-7.06)"/><rect class="cls-77" x="398.1" y="736.38" width="1.25" height="4.89" transform="translate(-87.83 54.64) rotate(-7.06)"/><path class="cls-76" d="M362.25,753l1.24-.15a8.27,8.27,0,0,0,1.51,4.28l-1,.7A10.21,10.21,0,0,1,362.25,753Z"/><path class="cls-76" d="M400.54,748.46l-1.24.15a8.17,8.17,0,0,1-.53,4.5c.39.14.76.31,1.15.46A10.26,10.26,0,0,0,400.54,748.46Z"/><path class="cls-76" d="M364.81,758.8l.92-.82a7.48,7.48,0,0,0,3.9,2.35c-.11.39-.23.78-.35,1.17A9.39,9.39,0,0,1,364.81,758.8Z"/><path class="cls-76" d="M399.33,754.73c-.36-.19-.71-.41-1.08-.6a8.08,8.08,0,0,1-3.29,3.14c.2.35.39.72.59,1.07A10.26,10.26,0,0,0,399.33,754.73Z"/><path class="cls-76" d="M375.55,760.25l.15,1.22-2.55.32a10.44,10.44,0,0,1-2.56,0c.06-.4.12-.81.17-1.21a7.79,7.79,0,0,0,2.06,0C373.72,760.49,374.64,760.36,375.55,760.25Z"/><path class="cls-76" d="M389.15,758.57l.15,1.21,2.57-.31a10.45,10.45,0,0,0,2.47-.58c-.15-.38-.29-.76-.43-1.15a8.08,8.08,0,0,1-2,.49C391,758.36,390.07,758.45,389.15,758.57Z"/><rect class="cls-77" x="376.85" y="759.79" width="4.98" height="1.22" transform="translate(-90.63 52.42) rotate(-7.06)"/><rect class="cls-77" x="383.03" y="759.02" width="4.98" height="1.22" transform="translate(-90.49 53.17) rotate(-7.06)"/></g></svg>