<?xml version="1.0" encoding="UTF-8" standalone="no"?>
<svg
   xmlns:dc="http://purl.org/dc/elements/1.1/"
   xmlns:cc="http://creativecommons.org/ns#"
   xmlns:rdf="http://www.w3.org/1999/02/22-rdf-syntax-ns#"
   xmlns:svg="http://www.w3.org/2000/svg"
   xmlns="http://www.w3.org/2000/svg"
   viewBox="0 0 706.66669 119.10667"
   height="119.10667"
   width="706.66669"
   xml:space="preserve"
   id="svg2"
   version="1.1"><metadata
     id="metadata8"><rdf:RDF><cc:Work
         rdf:about=""><dc:format>image/svg+xml</dc:format><dc:type
           rdf:resource="http://purl.org/dc/dcmitype/StillImage" /></cc:Work></rdf:RDF></metadata><defs
     id="defs6" /><g
     transform="matrix(1.3333333,0,0,-1.3333333,0,119.10667)"
     id="g10"><g
       transform="scale(0.1)"
       id="g12"><path
         id="path14"
         style="fill:#e4118a;fill-opacity:1;fill-rule:nonzero;stroke:none"
         d="m 339.691,889.086 c 44.727,0 87.598,-8.152 128.606,-24.457 41.008,-16.309 76.887,-39.113 107.633,-68.5 30.761,-29.328 55.441,-64.047 74.086,-104.129 18.632,-40.07 27.968,-83.426 27.968,-130.016 V 90.8633 c 0,-24.2266 -8.629,-45.1875 -25.875,-62.8867 C 634.859,10.2813 613.664,0.96875 588.531,0 563.344,0 541.695,8.18359 523.508,24.5117 505.324,40.7773 496.246,61.5352 496.246,86.7109 V 550.777 c 0,21.446 -3.961,41.735 -11.875,60.871 -7.922,19.028 -19.129,35.606 -33.558,49.594 -14.442,13.957 -31.223,25.164 -50.321,33.559 -19.09,8.367 -39.828,12.59 -62.199,12.59 -20.52,0 -40.094,-4.02 -58.727,-11.903 C 260.91,687.559 244.645,677.094 230.648,664.055 216.66,650.965 205.492,635.109 197.086,616.496 188.715,597.883 184.52,578.27 184.52,557.801 V 90.8633 C 184.52,66.6367 175.168,45.4727 156.555,27.293 137.918,9.13281 116.492,0 92.2539,0 68.0078,0 46.582,8.38672 27.9453,25.1953 9.3125,41.9258 0,62.4258 0,86.7109 V 550.777 c 0.90625,46.653 9.98828,90.379 27.2422,131.438 17.2344,40.988 41.0156,76.906 71.3125,107.613 30.2613,30.781 65.8983,54.988 106.9373,72.735 40.988,17.687 85.715,26.523 134.199,26.523" /><path
         id="path16"
         style="fill:#e4118a;fill-opacity:1;fill-rule:nonzero;stroke:none"
         d="m 1260.9,555.02 c 0,21.406 -3.96,41.695 -11.86,60.761 -7.93,19.141 -19.12,35.664 -33.57,49.664 -14.45,13.969 -31.23,25.133 -50.32,33.539 -19.11,8.418 -39.85,12.571 -62.21,12.571 -20.51,0 -40.08,-3.946 -58.72,-11.856 -18.66,-7.961 -34.92,-18.453 -48.919,-31.492 -13.988,-13 -25.156,-28.875 -33.563,-47.508 -8.371,-18.664 -12.566,-38.226 -12.566,-58.703 V 436.18 H 1260.9 Z m -156.55,338.312 c 44.72,0 87.59,-8.215 128.6,-24.519 40.99,-16.29 76.89,-39.114 107.64,-68.454 30.75,-29.406 55.43,-64.125 74.08,-104.168 18.63,-40.078 27.97,-83.406 27.97,-130.003 V 95.0781 c 0,-24.2265 -8.63,-45.1914 -25.86,-62.8672 -17.27,-17.7773 -38.46,-27.10934 -63.62,-27.99606 -25.16,0 -46.81,8.12106 -65,24.44536 -18.18,16.3281 -27.26,37.0898 -27.26,62.2031 V 254.453 H 949.172 V 95.0781 c 0,-24.2265 -9.352,-45.4531 -27.965,-63.6328 -18.656,-18.164 -40.062,-27.23046 -64.289,-27.23046 -24.258,0 -45.703,8.38286 -64.316,25.13286 -18.657,16.8125 -27.95,37.289 -27.95,61.5156 V 555.02 c 0.907,46.558 9.989,90.382 27.243,131.367 17.234,41.019 41.015,76.886 71.312,107.644 30.266,30.75 65.91,54.985 106.938,72.692 40.985,17.691 85.715,26.609 134.205,26.609" /><path
         id="path18"
         style="fill:#e4118a;fill-opacity:1;fill-rule:nonzero;stroke:none"
         d="m 2120.63,188.723 c 27.02,0 49.39,-9.313 67.1,-27.938 17.69,-18.683 26.56,-40.512 26.56,-65.7069 0,-27.0117 -8.87,-49.6054 -26.56,-67.7851 C 2170.02,9.13281 2147.65,0 2120.63,0 h -492.05 c -18.67,0.96875 -34.95,5.80469 -48.94,14.7148 -14,8.8477 -24.71,20.2774 -32.16,34.2461 -7.47,13.9258 -11.19,29.3047 -11.19,46.1172 0,16.7459 4.67,33.5589 14,50.2889 l 1.4,1.434 383.04,557.797 h -308.97 c -25.15,0 -47.05,8.808 -65.69,26.547 -18.66,17.707 -27.97,40.058 -27.97,67.101 0,26.059 9.31,48.453 27.97,67.098 18.64,18.636 40.54,27.988 65.69,27.988 h 492.09 c 17.68,-0.98 33.76,-6.098 48.23,-15.379 14.42,-9.355 25.61,-21.234 33.54,-35.668 7.9,-14.472 11.88,-30.293 11.88,-47.539 0,-17.254 -5.14,-34.273 -15.39,-51.016 L 1810.28,188.723 h 310.35" /><path
         id="path20"
         style="fill:#e4118a;fill-opacity:1;fill-rule:nonzero;stroke:none"
         d="M 2498.04,703.168 V 190.172 h 162.17 c 17.7,0 34.47,3.246 50.31,9.719 15.82,6.527 29.57,15.66 41.22,27.289 11.65,11.633 20.74,25.175 27.27,40.554 6.51,15.379 9.79,31.926 9.79,49.625 V 575.98 c 0,17.688 -3.28,34.227 -9.79,49.606 -6.53,15.367 -15.62,28.875 -27.27,40.574 -11.65,11.641 -25.4,20.68 -41.22,27.199 -15.84,6.543 -32.61,9.809 -50.31,9.809 z m 162.17,190.152 c 41,0 80.82,-8.211 119.48,-24.519 38.66,-16.289 72.67,-38.903 102.09,-67.754 29.33,-28.945 52.87,-62.484 70.57,-100.66 17.7,-38.246 26.55,-79.699 26.55,-124.407 V 317.359 c 0,-41.925 -8.63,-82.015 -25.86,-120.25 -17.24,-38.199 -40.3,-71.937 -69.2,-101.3473 C 2854.94,66.4336 2821.13,43.1133 2782.48,25.8828 2743.84,8.64844 2703.06,0 2660.21,0 h -255.83 c -25.16,0 -47.31,9.13281 -66.4,27.293 -19.12,18.1797 -28.65,40.7734 -28.65,67.7851 V 798.234 c 0,24.239 9.08,46.149 27.24,65.7 18.19,19.582 40.77,29.386 67.81,29.386 h 255.83" /><path
         id="path22"
         style="fill:#e4118a;fill-opacity:1;fill-rule:nonzero;stroke:none"
         d="m 3560.42,188.723 c 26.06,0 48.26,-9.313 66.41,-27.938 18.19,-18.683 27.24,-40.512 27.24,-65.7069 0,-27.0117 -9.05,-49.6054 -27.24,-67.7851 C 3608.68,9.13281 3586.48,0 3560.42,0 h -399.8 c -24.24,0 -45.89,9.13281 -65.02,27.293 -19.09,18.1797 -28.64,40.7734 -28.64,67.7851 V 798.246 c 0,24.227 8.87,46.145 26.56,65.688 17.7,19.589 40.05,29.398 67.1,29.398 h 399.8 c 26.06,0 48.26,-9.352 66.41,-27.988 18.19,-18.645 27.24,-41.039 27.24,-67.098 0,-27.043 -9.05,-49.394 -27.24,-67.101 -18.15,-17.739 -40.35,-26.547 -66.41,-26.547 H 3252.88 V 545.215 h 213.9 c 25.15,0 47.02,-9.332 65.68,-27.969 18.63,-18.633 27.96,-40.984 27.96,-67.098 0,-26.062 -9.33,-48.214 -27.96,-66.375 -18.66,-18.16 -40.53,-27.293 -65.68,-27.293 h -213.9 V 188.723 h 307.54" /><path
         id="path24"
         style="fill:#e4118a;fill-opacity:1;fill-rule:nonzero;stroke:none"
         d="m 4242.6,188.723 c 26.07,0 48.22,-9.313 66.4,-27.938 18.16,-18.683 27.25,-40.512 27.25,-65.7069 0,-27.0117 -9.09,-49.6054 -27.25,-67.7851 C 4290.82,9.13281 4268.67,0 4242.6,0 h -399.81 c -24.23,0 -45.92,9.13281 -65.03,27.293 -19.1,18.1797 -28.62,40.7734 -28.62,67.7851 V 798.246 c 0,24.227 8.85,46.145 26.53,65.688 17.7,19.589 40.09,29.398 67.12,29.398 h 399.81 c 26.07,0 48.22,-9.352 66.4,-27.988 18.16,-18.645 27.25,-41.039 27.25,-67.098 0,-27.043 -9.09,-49.394 -27.25,-67.101 -18.18,-17.739 -40.33,-26.547 -66.4,-26.547 H 3935.06 V 545.215 h 213.86 c 25.2,0 47.06,-9.332 65.71,-27.969 18.64,-18.633 27.97,-40.984 27.97,-67.098 0,-26.062 -9.33,-48.214 -27.97,-66.375 -18.65,-18.16 -40.51,-27.293 -65.71,-27.293 H 3935.06 V 188.723 h 307.54" /><path
         id="path26"
         style="fill:#e4118a;fill-opacity:1;fill-rule:nonzero;stroke:none"
         d="m 4917.77,555.02 c 0,21.406 -3.93,41.695 -11.87,60.761 -7.92,19.141 -19.12,35.664 -33.54,49.664 -14.47,13.969 -31.24,25.133 -50.33,33.539 -19.08,8.418 -39.84,12.571 -62.2,12.571 -22.35,0 -42.87,-3.946 -61.53,-11.856 -18.65,-7.961 -34.93,-18.453 -48.9,-31.492 -13.97,-13 -25.18,-28.875 -33.54,-47.508 -8.41,-18.664 -12.6,-38.226 -12.6,-58.703 V 338.32 c -0.95,-21.445 2.56,-41.742 10.48,-60.851 7.9,-19.047 19.09,-35.594 33.56,-49.602 14.43,-13.969 31.2,-25.117 50.33,-33.582 19.09,-8.344 40.76,-12.558 64.96,-12.558 20.5,0 40.12,4.011 58.76,11.894 18.58,7.899 34.93,18.383 48.94,31.442 13.94,13.042 25.13,28.925 33.54,47.57 8.34,18.582 12.56,38.195 12.56,58.676 z M 4761.22,0 c -46.62,0 -90.42,8.18359 -131.42,24.5117 -40.99,16.2656 -76.87,39.1211 -107.63,68.4688 -30.76,29.3285 -55.47,64.0395 -74.07,104.1285 -18.65,40.071 -27.98,83.422 -27.98,130.043 V 555.02 c 0,46.558 8.61,90.382 25.86,131.367 17.25,41.019 41.02,76.886 71.29,107.644 30.28,30.75 65.95,54.985 106.95,72.692 41.02,17.691 86.67,26.609 137,26.609 44.75,0 87.58,-8.215 128.6,-24.519 41.04,-16.29 76.89,-39.114 107.65,-68.454 30.76,-29.406 55.43,-64.125 74.08,-104.168 18.64,-40.078 27.97,-83.406 27.97,-130.003 V 338.32 c 0,-46.621 -8.64,-90.379 -25.86,-131.418 C 5056.41,165.867 5032.6,129.988 5002.37,99.3086 4972.06,68.5508 4936.42,44.2422 4895.42,26.5469 4854.42,8.85156 4809.68,0 4761.22,0" /><path
         id="path28"
         style="fill:#e4118a;fill-opacity:1;fill-rule:nonzero;stroke:none"
         d="m 4994.97,490.703 68.45,-37.734 c 8.41,-8.352 19.62,-10.735 33.56,-6.977 13.99,2.785 24.71,9.77 32.15,20.977 12.1,20.469 29.13,35.371 51.02,44.746 21.91,9.262 44.99,6.953 69.21,-7.024 23.26,-13.062 38.92,-32.171 46.83,-57.316 7.92,-25.184 3.5,-51.73 -13.29,-79.707 -16.77,-28.844 -36.14,-51.922 -58.01,-69.137 -21.88,-17.273 -47.74,-29.164 -77.58,-35.652 -29.85,-6.531 -60.61,-7.016 -92.25,-1.414 -8.37,2.781 -16.77,5.082 -25.18,7.015 -20.47,3.668 -39.6,11.106 -57.3,22.372 l -69.9,37.695 c -8.37,7.476 -19.59,9.793 -33.54,7.016 -13.99,-3.75 -24.25,-11.168 -30.76,-22.395 -13.08,-19.531 -30.56,-34.008 -52.41,-43.359 -21.93,-9.313 -44.98,-6.93 -69.21,7.015 -23.3,13.063 -38.7,32.192 -46.14,57.305 -7.46,25.176 -3.26,51.723 12.58,79.699 16.79,28.863 36.12,51.707 58.03,68.508 21.87,16.762 47.73,28.633 77.58,35.605 29.81,7.028 60.57,7.227 92.25,0.727 5.57,-1.855 11.19,-3.738 16.81,-5.574 23.26,-2.832 45.64,-10.278 67.1,-22.391" /></g></g></svg>